<svg width="80" height="81" viewBox="0 0 80 81" fill="none" xmlns="http://www.w3.org/2000/svg">
<circle cx="40" cy="41.5" r="30" fill="#A6B742" fill-opacity="0.1"/>
<circle cx="40" cy="41.5" r="30" fill="#A6B742" fill-opacity="0.1"/>
<circle cx="40" cy="40.9082" r="40" fill="#A6B742" fill-opacity="0.1"/>
<path d="M55 27.5H25C23.3454 27.5 22 28.8454 22 30.5V51.5C22 53.1546 23.3454 54.5 25 54.5H55C56.6546 54.5 58 53.1546 58 51.5V30.5C58 28.8454 56.6546 27.5 55 27.5ZM25 29H55C55.1106 29 55.208 29.0403 55.3117 29.063C52.7144 31.4401 44.1022 39.3188 41.0884 42.0342C40.8526 42.2466 40.4725 42.5 40.0001 42.5C39.5276 42.5 39.1475 42.2466 38.9109 42.0335C35.8974 39.3185 27.2848 31.4394 24.6879 29.0632C24.7918 29.0404 24.8894 29 25 29ZM23.5 51.5V30.5C23.5 30.3531 23.5443 30.2198 23.5839 30.0855C25.5718 31.9049 31.581 37.4022 35.4774 40.9454C31.5936 44.2816 25.5829 49.9802 23.5792 51.8909C23.5439 51.7634 23.5 51.6386 23.5 51.5ZM55 53H25C24.8802 53 24.7737 52.9583 24.6618 52.9315C26.7323 50.9577 32.7813 45.2263 36.5968 41.9622C37.0328 42.358 37.4695 42.7531 37.9067 43.1475C38.5249 43.7056 39.2485 44 40 44C40.7515 44 41.4751 43.7056 42.0925 43.1482C42.53 42.7535 42.9669 42.3582 43.4032 41.9622C47.2189 45.2259 53.2671 50.957 55.3382 52.9315C55.2263 52.9583 55.1199 53 55 53ZM56.5 51.5C56.5 51.6386 56.4561 51.7634 56.4208 51.8909C54.4164 49.9793 48.4064 44.2812 44.5226 40.9455C48.4192 37.4023 54.4275 31.9054 56.4161 30.0853C56.4557 30.2196 56.5 30.353 56.5 30.5V51.5Z" fill="#A6B742"/>
</svg>
