<svg width="36" height="37" viewBox="0 0 36 37" fill="none" xmlns="http://www.w3.org/2000/svg">
<g clip-path="url(#clip0_588_360)">
<path d="M0 32.6429C0 33.6658 0.406377 34.6469 1.12973 35.3703C1.85309 36.0936 2.83416 36.5 3.85714 36.5H32.1429C33.1658 36.5 34.1469 36.0936 34.8703 35.3703C35.5936 34.6469 36 33.6658 36 32.6429V14.6429H0V32.6429ZM25.7143 21.0714H28.2857C28.6267 21.0714 28.9537 21.2069 29.1949 21.448C29.436 21.6891 29.5714 22.0161 29.5714 22.3571C29.5714 22.6981 29.436 23.0252 29.1949 23.2663C28.9537 23.5074 28.6267 23.6429 28.2857 23.6429H25.7143C25.3733 23.6429 25.0463 23.5074 24.8051 23.2663C24.564 23.0252 24.4286 22.6981 24.4286 22.3571C24.4286 22.0161 24.564 21.6891 24.8051 21.448C25.0463 21.2069 25.3733 21.0714 25.7143 21.0714ZM25.7143 27.5H28.2857C28.6267 27.5 28.9537 27.6355 29.1949 27.8766C29.436 28.1177 29.5714 28.4447 29.5714 28.7857C29.5714 29.1267 29.436 29.4537 29.1949 29.6949C28.9537 29.936 28.6267 30.0714 28.2857 30.0714H25.7143C25.3733 30.0714 25.0463 29.936 24.8051 29.6949C24.564 29.4537 24.4286 29.1267 24.4286 28.7857C24.4286 28.4447 24.564 28.1177 24.8051 27.8766C25.0463 27.6355 25.3733 27.5 25.7143 27.5ZM16.7143 21.0714H19.2857C19.6267 21.0714 19.9537 21.2069 20.1949 21.448C20.436 21.6891 20.5714 22.0161 20.5714 22.3571C20.5714 22.6981 20.436 23.0252 20.1949 23.2663C19.9537 23.5074 19.6267 23.6429 19.2857 23.6429H16.7143C16.3733 23.6429 16.0463 23.5074 15.8051 23.2663C15.564 23.0252 15.4286 22.6981 15.4286 22.3571C15.4286 22.0161 15.564 21.6891 15.8051 21.448C16.0463 21.2069 16.3733 21.0714 16.7143 21.0714ZM16.7143 27.5H19.2857C19.6267 27.5 19.9537 27.6355 20.1949 27.8766C20.436 28.1177 20.5714 28.4447 20.5714 28.7857C20.5714 29.1267 20.436 29.4537 20.1949 29.6949C19.9537 29.936 19.6267 30.0714 19.2857 30.0714H16.7143C16.3733 30.0714 16.0463 29.936 15.8051 29.6949C15.564 29.4537 15.4286 29.1267 15.4286 28.7857C15.4286 28.4447 15.564 28.1177 15.8051 27.8766C16.0463 27.6355 16.3733 27.5 16.7143 27.5ZM7.71429 21.0714H10.2857C10.6267 21.0714 10.9537 21.2069 11.1949 21.448C11.436 21.6891 11.5714 22.0161 11.5714 22.3571C11.5714 22.6981 11.436 23.0252 11.1949 23.2663C10.9537 23.5074 10.6267 23.6429 10.2857 23.6429H7.71429C7.37329 23.6429 7.04627 23.5074 6.80515 23.2663C6.56403 23.0252 6.42857 22.6981 6.42857 22.3571C6.42857 22.0161 6.56403 21.6891 6.80515 21.448C7.04627 21.2069 7.37329 21.0714 7.71429 21.0714ZM7.71429 27.5H10.2857C10.6267 27.5 10.9537 27.6355 11.1949 27.8766C11.436 28.1177 11.5714 28.4447 11.5714 28.7857C11.5714 29.1267 11.436 29.4537 11.1949 29.6949C10.9537 29.936 10.6267 30.0714 10.2857 30.0714H7.71429C7.37329 30.0714 7.04627 29.936 6.80515 29.6949C6.56403 29.4537 6.42857 29.1267 6.42857 28.7857C6.42857 28.4447 6.56403 28.1177 6.80515 27.8766C7.04627 27.6355 7.37329 27.5 7.71429 27.5ZM32.1429 3.07143H27V1.78571C27 1.44472 26.8645 1.1177 26.6234 0.876577C26.3823 0.635459 26.0553 0.5 25.7143 0.5C25.3733 0.5 25.0463 0.635459 24.8051 0.876577C24.564 1.1177 24.4286 1.44472 24.4286 1.78571V3.07143H11.5714V1.78571C11.5714 1.44472 11.436 1.1177 11.1949 0.876577C10.9537 0.635459 10.6267 0.5 10.2857 0.5C9.94472 0.5 9.61769 0.635459 9.37658 0.876577C9.13546 1.1177 9 1.44472 9 1.78571V3.07143H3.85714C2.83416 3.07143 1.85309 3.47781 1.12973 4.20116C0.406377 4.92451 0 5.90559 0 6.92857V12.0714H36V6.92857C36 5.90559 35.5936 4.92451 34.8703 4.20116C34.1469 3.47781 33.1658 3.07143 32.1429 3.07143Z" fill="#007C8A"/>
</g>
<defs>
<clipPath id="clip0_588_360">
<rect width="36" height="36" fill="white" transform="translate(0 0.5)"/>
</clipPath>
</defs>
</svg>
