<svg width="36" height="37" viewBox="0 0 36 37" fill="none" xmlns="http://www.w3.org/2000/svg">
<g clip-path="url(#clip0_588_221)">
<path d="M32.1429 3.07143H27V1.78571C27 1.44472 26.8645 1.1177 26.6234 0.876577C26.3823 0.635459 26.0553 0.5 25.7143 0.5C25.3733 0.5 25.0463 0.635459 24.8051 0.876577C24.564 1.1177 24.4286 1.44472 24.4286 1.78571V3.07143H11.5714V1.78571C11.5714 1.44472 11.436 1.1177 11.1949 0.876577C10.9537 0.635459 10.6267 0.5 10.2857 0.5C9.94472 0.5 9.61769 0.635459 9.37658 0.876577C9.13546 1.1177 9 1.44472 9 1.78571V3.07143H3.85714C2.83416 3.07143 1.85309 3.47781 1.12973 4.20116C0.406377 4.92451 0 5.90559 0 6.92857V13.3571H36V6.92857C36 5.90559 35.5936 4.92451 34.8703 4.20116C34.1469 3.47781 33.1658 3.07143 32.1429 3.07143ZM0 32.6429C0 33.6658 0.406377 34.6469 1.12973 35.3703C1.85309 36.0936 2.83416 36.5 3.85714 36.5H32.1429C33.1658 36.5 34.1469 36.0936 34.8703 35.3703C35.5936 34.6469 36 33.6658 36 32.6429V15.9286H0V32.6429Z" fill="#007C8A"/>
<path d="M13.6358 28.2312L10.131 31.7361C10.0684 31.7987 10.0258 31.8784 10.0086 31.9652C9.99134 32.052 10.0002 32.142 10.0341 32.2237C10.0679 32.3055 10.1253 32.3754 10.1988 32.4245C10.2724 32.4737 10.3589 32.5 10.4474 32.5H12.238C12.8359 32.5 13.3979 32.2672 13.8206 31.8445L15.1954 30.4697C15.2324 30.4327 15.8028 29.8596 16.171 29.4865C16.1623 29.4865 16.1538 29.4868 16.1451 29.4868C15.1575 29.4868 14.232 29.0204 13.6358 28.2312ZM22.9651 18.902L14.277 27.59C14.727 28.2579 15.4361 28.5918 16.1451 28.5918C16.7183 28.5918 17.2914 28.3737 17.7277 27.9374L24.881 20.7841C25.399 20.2661 25.4045 19.4266 24.8973 18.9018C24.3752 18.3614 23.4964 18.3707 22.9651 18.902ZM16.3117 31.605H15.3716C15.1245 31.605 14.9242 31.8053 14.9242 32.0525C14.9242 32.2996 15.1245 32.5 15.3716 32.5H16.3117C16.5589 32.5 16.7592 32.2996 16.7592 32.0525C16.7592 31.8053 16.5589 31.605 16.3117 31.605ZM19.132 31.605H18.1919C17.9447 31.605 17.7444 31.8053 17.7444 32.0525C17.7444 32.2996 17.9447 32.5 18.1919 32.5H19.132C19.3791 32.5 19.5795 32.2996 19.5795 32.0525C19.5795 31.8053 19.3791 31.605 19.132 31.605ZM21.9522 31.605H21.0121C20.765 31.605 20.5646 31.8053 20.5646 32.0525C20.5646 32.2996 20.765 32.5 21.0121 32.5H21.9522C22.1993 32.5 22.3997 32.2996 22.3997 32.0525C22.3997 31.8053 22.1994 31.605 21.9522 31.605ZM24.7725 31.605H23.8324C23.5852 31.605 23.3849 31.8053 23.3849 32.0525C23.3849 32.2996 23.5852 32.5 23.8324 32.5H24.7725C25.0196 32.5 25.22 32.2996 25.22 32.0525C25.22 31.8053 25.0196 31.605 24.7725 31.605Z" fill="white"/>
</g>
<defs>
<clipPath id="clip0_588_221">
<rect width="36" height="36" fill="white" transform="translate(0 0.5)"/>
</clipPath>
</defs>
</svg>
