<svg width="36" height="37" viewBox="0 0 36 37" fill="none" xmlns="http://www.w3.org/2000/svg">
<g clip-path="url(#clip0_1835_18241)">
<path d="M36 10.7857V6.92857C36 5.90559 35.5936 4.92451 34.8703 4.20116C34.1469 3.47781 33.1658 3.07143 32.1429 3.07143H27V1.78571C27 1.44472 26.8645 1.1177 26.6234 0.876577C26.3823 0.635459 26.0553 0.5 25.7143 0.5C25.3733 0.5 25.0463 0.635459 24.8051 0.876577C24.564 1.1177 24.4286 1.44472 24.4286 1.78571V3.07143H11.5714V1.78571C11.5714 1.44472 11.436 1.1177 11.1949 0.876577C10.9537 0.635459 10.6267 0.5 10.2857 0.5C9.94472 0.5 9.61769 0.635459 9.37658 0.876577C9.13546 1.1177 9 1.44472 9 1.78571V3.07143H3.85714C2.83416 3.07143 1.85309 3.47781 1.12973 4.20116C0.406377 4.92451 0 5.90559 0 6.92857V10.7857H36ZM0 13.3571V32.6429C0 33.6658 0.406377 34.6469 1.12973 35.3703C1.85309 36.0936 2.83416 36.5 3.85714 36.5H32.1429C33.1658 36.5 34.1469 36.0936 34.8703 35.3703C35.5936 34.6469 36 33.6658 36 32.6429V13.3571H0ZM25.2643 20.7616L16.2643 28.4759C16.0183 28.6862 15.702 28.796 15.3786 28.7834C15.0552 28.7707 14.7484 28.6366 14.5196 28.4077L10.6624 24.5506C10.4282 24.3081 10.2986 23.9833 10.3016 23.6462C10.3045 23.3091 10.4397 22.9866 10.6781 22.7482C10.9165 22.5099 11.2389 22.3746 11.5761 22.3717C11.9132 22.3688 12.2379 22.4984 12.4804 22.7326L15.4967 25.7489L23.5967 18.806C23.7242 18.6911 23.8734 18.6029 24.0355 18.5465C24.1976 18.4902 24.3694 18.4669 24.5406 18.478C24.7119 18.4891 24.8792 18.5344 25.0327 18.6111C25.1862 18.6879 25.3227 18.7946 25.4343 18.925C25.5459 19.0554 25.6303 19.2068 25.6824 19.3703C25.7346 19.5339 25.7535 19.7061 25.738 19.8771C25.7225 20.048 25.6729 20.2141 25.5923 20.3655C25.5116 20.517 25.4014 20.6508 25.2681 20.759L25.2643 20.7616Z" fill="#007C8A"/>
</g>
<defs>
<clipPath id="clip0_1835_18241">
<rect width="36" height="36" fill="white" transform="translate(0 0.5)"/>
</clipPath>
</defs>
</svg>
