<svg width="36" height="37" viewBox="0 0 36 37" fill="none" xmlns="http://www.w3.org/2000/svg">
<g clip-path="url(#clip0_588_3069)">
<path d="M32.1429 3.07143H27V1.78571C27 1.44472 26.8645 1.1177 26.6234 0.876577C26.3823 0.635459 26.0553 0.5 25.7143 0.5C25.3733 0.5 25.0463 0.635459 24.8051 0.876577C24.564 1.1177 24.4286 1.44472 24.4286 1.78571V3.07143H11.5714V1.78571C11.5714 1.44472 11.436 1.1177 11.1949 0.876577C10.9537 0.635459 10.6267 0.5 10.2857 0.5C9.94472 0.5 9.61769 0.635459 9.37658 0.876577C9.13546 1.1177 9 1.44472 9 1.78571V3.07143H3.85714C2.83416 3.07143 1.85309 3.47781 1.12973 4.20116C0.406377 4.92451 0 5.90559 0 6.92857V13.3571H36V6.92857C36 5.90559 35.5936 4.92451 34.8703 4.20116C34.1469 3.47781 33.1658 3.07143 32.1429 3.07143ZM0 32.6429C0 33.6658 0.406377 34.6469 1.12973 35.3703C1.85309 36.0936 2.83416 36.5 3.85714 36.5H32.1429C33.1658 36.5 34.1469 36.0936 34.8703 35.3703C35.5936 34.6469 36 33.6658 36 32.6429V15.9286H0V32.6429Z" fill="#007C8A"/>
<path d="M10.3555 26.1951C10.3555 26.4934 10.474 26.7796 10.685 26.9905C10.896 27.2015 11.1821 27.3201 11.4805 27.3201L20.3905 27.3201L17.4355 30.2751C17.2368 30.4883 17.1286 30.7704 17.1337 31.0618C17.1389 31.3533 17.2569 31.6314 17.4631 31.8375C17.6692 32.0436 17.9472 32.1617 18.2387 32.1668C18.5302 32.172 18.8122 32.0638 19.0255 31.8651L23.9005 26.9901C24.1112 26.7791 24.2295 26.4932 24.2295 26.1951C24.2295 25.8969 24.1112 25.611 23.9005 25.4001L19.0255 20.5251C18.9225 20.4145 18.7983 20.3259 18.6603 20.2644C18.5223 20.2029 18.3733 20.1698 18.2223 20.1672C18.0712 20.1645 17.9212 20.1923 17.7811 20.2489C17.641 20.3055 17.5138 20.3897 17.4069 20.4965C17.3001 20.6033 17.2159 20.7306 17.1593 20.8707C17.1027 21.0107 17.0749 21.1608 17.0776 21.3118C17.0803 21.4629 17.1133 21.6119 17.1748 21.7499C17.2363 21.8879 17.325 22.0121 17.4355 22.1151L20.3905 25.0701L11.4805 25.0701C10.8595 25.0701 10.3555 25.5741 10.3555 26.1951Z" fill="white"/>
</g>
<defs>
<clipPath id="clip0_588_3069">
<rect width="36" height="36" fill="white" transform="translate(0 0.5)"/>
</clipPath>
</defs>
</svg>
