<svg width="560" height="508" viewBox="0 0 560 508" fill="none" xmlns="http://www.w3.org/2000/svg">
<g clip-path="url(#clip0_1309_25448)">
<path d="M132.179 66.8281C132.179 66.8281 69.4774 127.657 50.8358 196.581C32.1942 265.505 59.1414 337.883 122.317 377.935C185.493 417.987 269.815 383.208 353.663 394.652C437.511 406.095 515.268 373.479 525.657 289.446C536.045 205.414 475.374 194.59 438.79 112.786C402.205 30.9818 283.144 -67.8293 132.179 66.8281Z" fill="#9AA846"/>
<path opacity="0.7" d="M132.179 66.8281C132.179 66.8281 69.4774 127.657 50.8358 196.581C32.1942 265.505 59.1414 337.883 122.317 377.935C185.493 417.987 269.815 383.208 353.663 394.652C437.511 406.095 515.268 373.479 525.657 289.446C536.045 205.414 475.374 194.59 438.79 112.786C402.205 30.9818 283.144 -67.8293 132.179 66.8281Z" fill="white"/>
<path opacity="0.1" d="M287.534 507.042C428.06 507.042 541.978 486.808 541.978 461.849C541.978 436.889 428.06 416.655 287.534 416.655C147.009 416.655 33.0908 436.889 33.0908 461.849C33.0908 486.808 147.009 507.042 287.534 507.042Z" fill="black"/>
<path d="M537.034 228.158C537.034 228.158 537.034 222.621 529.282 214.869C521.53 207.117 516.547 202.674 516.547 202.674C516.547 202.674 512.671 215.422 519.869 223.174C525.155 228.627 530.888 233.628 537.007 238.125L537.034 228.158Z" fill="#9AA846"/>
<path d="M525.788 262.751C525.788 262.751 525.788 257.214 518.023 249.462C510.258 241.71 505.288 237.268 505.288 237.268C505.288 237.268 501.412 250.016 508.61 257.768C513.897 263.224 519.629 268.229 525.749 272.731L525.788 262.751Z" fill="#9AA846"/>
<path d="M536.572 237.598C536.572 237.598 537.166 232.087 545.695 225.192C554.225 218.297 559.657 214.421 559.657 214.421C559.657 214.421 562.162 227.499 554.186 234.447C548.343 239.315 542.103 243.685 535.531 247.512L536.572 237.598Z" fill="#9AA846"/>
<path d="M522.954 278.454C522.954 278.454 524.114 273.035 533.329 267.076C542.545 261.117 548.332 257.848 548.332 257.848C548.332 257.848 549.453 271.11 540.791 277.188C534.472 281.414 527.809 285.101 520.871 288.209L522.954 278.454Z" fill="#9AA846"/>
<path d="M525.512 323.001C525.512 323.001 525.512 317.464 533.264 309.699C541.016 301.934 546.012 297.518 546.012 297.518C546.012 297.518 549.888 310.253 542.69 318.018C537.402 323.468 531.669 328.469 525.551 332.968L525.512 323.001Z" fill="#9AA846"/>
<path d="M525.38 333.864C525.38 333.864 526.171 328.393 519.592 319.613C513.013 310.833 508.716 305.73 508.716 305.73C508.716 305.73 503.06 317.793 509.098 326.495C513.564 332.648 518.539 338.416 523.969 343.739L525.38 333.864Z" fill="#9AA846"/>
<path d="M517.733 366.098C517.733 366.098 517.733 360.561 525.485 352.796C533.237 345.031 538.234 340.614 538.234 340.614C538.234 340.614 542.11 353.35 534.911 361.115C529.623 366.565 523.89 371.566 517.773 376.065L517.733 366.098Z" fill="#9AA846"/>
<path d="M522.914 395.313C522.914 395.313 521.503 389.947 527.054 380.481C532.604 371.015 536.282 365.465 536.282 365.465C536.282 365.465 543.27 376.816 538.26 386.137C534.518 392.756 530.227 399.049 525.432 404.95L522.914 395.313Z" fill="#9AA846"/>
<path d="M537.746 226.733C537.345 232.502 536.637 238.245 535.623 243.938C532.551 259.758 524.892 270.002 521.82 284.306C518.748 298.61 527.555 317.041 525.195 335.419C522.835 353.797 515.69 364.014 517.733 376.288C519.777 388.562 530.759 422.958 530.759 422.958" stroke="#263238" stroke-width="0.988771" stroke-linecap="round" stroke-linejoin="round"/>
<path d="M536.481 241.275L544.839 234.854" stroke="#263238" stroke-width="0.988771" stroke-linecap="round" stroke-linejoin="round"/>
<path d="M536.863 233.892L533.369 227.669" stroke="#263238" stroke-width="0.988771" stroke-linecap="round" stroke-linejoin="round"/>
<path d="M522.282 283.647C522.282 283.647 529.282 278.374 536.48 273.101" stroke="#263238" stroke-width="0.988771" stroke-linecap="round" stroke-linejoin="round"/>
<path d="M525.419 271.742C522.001 265.349 517.956 259.312 513.343 253.72" stroke="#263238" stroke-width="0.988771" stroke-linecap="round" stroke-linejoin="round"/>
<path d="M525.789 330.87C529.786 323.513 534.826 316.772 540.752 310.857" stroke="#263238" stroke-width="0.988771" stroke-linecap="round" stroke-linejoin="round"/>
<path d="M524.43 338.65C522.286 333.653 519.733 328.843 516.797 324.267C512.71 318.242 512.13 317.464 512.13 317.464" stroke="#263238" stroke-width="0.988771" stroke-linecap="round" stroke-linejoin="round"/>
<path d="M517.733 376.236C519.509 371.834 521.615 367.572 524.035 363.488C526.457 359.706 529.187 356.13 532.196 352.796" stroke="#263238" stroke-width="0.988771" stroke-linecap="round" stroke-linejoin="round"/>
<path d="M525.433 404.949C525.029 400.748 525.752 396.516 527.529 392.688C530.456 387.045 533.752 379.663 535.109 376.749" stroke="#263238" stroke-width="0.988771" stroke-linecap="round" stroke-linejoin="round"/>
<path d="M486.251 302.157C486.251 302.157 485.657 298.69 489.678 292.929C493.699 287.167 496.336 283.911 496.336 283.911C496.336 283.911 500.159 291.479 496.481 297.095C493.749 301.091 490.688 304.852 487.332 308.34L486.251 302.157Z" fill="#9AA846"/>
<path d="M497.022 322.633C497.022 322.633 496.415 319.166 500.436 313.404C504.457 307.643 507.107 304.387 507.107 304.387C507.107 304.387 510.917 311.954 507.239 317.57C504.514 321.568 501.457 325.33 498.103 328.816L497.022 322.633Z" fill="#9AA846"/>
<path d="M487.582 308.024C487.582 308.024 486.62 304.636 480.516 301.234C474.412 297.833 470.602 295.961 470.602 295.961C470.602 295.961 470.444 304.438 476.205 307.932C480.418 310.351 484.828 312.411 489.388 314.088L487.582 308.024Z" fill="#9AA846"/>
<path d="M500.542 332.177C500.542 332.177 499.224 328.907 492.803 326.165C486.383 323.423 482.388 321.999 482.388 321.999C482.388 321.999 483.126 330.437 489.217 333.311C493.644 335.268 498.226 336.856 502.915 338.057L500.542 332.177Z" fill="#9AA846"/>
<path d="M503.785 360.415C503.785 360.415 503.179 356.935 497.47 352.914C491.762 348.893 488.163 346.651 488.163 346.651C488.163 346.651 487.108 355.063 492.474 359.149C496.389 361.994 500.534 364.507 504.866 366.664L503.785 360.415Z" fill="#9AA846"/>
<path d="M505.037 367.192C505.037 367.192 503.956 363.831 507.12 357.621C510.284 351.412 512.394 347.733 512.394 347.733C512.394 347.733 517.245 354.681 514.411 360.798C512.278 365.138 509.786 369.292 506.962 373.217L505.037 367.192Z" fill="#9AA846"/>
<path d="M514.78 395.207C514.78 395.207 515.176 391.7 520.647 387.362C526.118 383.025 529.585 380.586 529.585 380.586C529.585 380.586 531.115 388.918 525.999 393.308C522.254 396.371 518.259 399.114 514.055 401.508L514.78 395.207Z" fill="#9AA846"/>
<path d="M513.33 386.558C513.33 386.558 512.737 383.091 507.028 379.07C501.32 375.049 497.721 372.808 497.721 372.808C497.721 372.808 496.666 381.219 502.018 385.306C505.936 388.147 510.081 390.66 514.411 392.82L513.33 386.558Z" fill="#9AA846"/>
<path d="M513.264 405.451C513.264 405.451 513.554 401.931 509.058 396.605C504.563 391.279 501.636 388.181 501.636 388.181C501.636 388.181 498.485 396.091 502.638 401.364C505.705 405.105 509.079 408.585 512.723 411.766L513.264 405.451Z" fill="#9AA846"/>
<path d="M485.658 301.354C486.527 304.926 487.596 308.448 488.861 311.9C492.5 321.511 498.419 327.075 501.887 335.723C505.354 344.372 501.887 356.817 505.328 368.142C508.768 379.466 514.385 385.043 514.437 392.953C514.49 400.863 511.366 422.854 511.366 422.854" stroke="#263238" stroke-width="0.988771" stroke-linecap="round" stroke-linejoin="round"/>
<path d="M488.031 310.332L482.098 307.207" stroke="#263238" stroke-width="0.988771" stroke-linecap="round" stroke-linejoin="round"/>
<path d="M486.989 305.742L488.505 301.457" stroke="#263238" stroke-width="0.988771" stroke-linecap="round" stroke-linejoin="round"/>
<path d="M501.531 335.367C501.531 335.367 496.573 332.836 491.498 330.331" stroke="#263238" stroke-width="0.988771" stroke-linecap="round" stroke-linejoin="round"/>
<path d="M498.116 327.8C499.697 323.585 501.629 319.51 503.891 315.618" stroke="#263238" stroke-width="0.988771" stroke-linecap="round" stroke-linejoin="round"/>
<path d="M504.457 365.36C501.161 361.174 497.27 357.492 492.909 354.431" stroke="#263238" stroke-width="0.988771" stroke-linecap="round" stroke-linejoin="round"/>
<path d="M506.158 370.078C506.95 366.718 508.017 363.428 509.349 360.243C511.26 356.024 511.537 355.471 511.537 355.471" stroke="#263238" stroke-width="0.988771" stroke-linecap="round" stroke-linejoin="round"/>
<path d="M514.161 398.952C516.088 396.57 518.223 394.364 520.542 392.36C522.019 391.272 523.408 390.069 524.694 388.761" stroke="#263238" stroke-width="0.988771" stroke-linecap="round" stroke-linejoin="round"/>
<path d="M514.437 392.953C512.867 390.385 511.104 387.939 509.164 385.636C507.238 383.527 505.139 381.582 502.889 379.822" stroke="#263238" stroke-width="0.988771" stroke-linecap="round" stroke-linejoin="round"/>
<path d="M512.723 411.83C512.522 409.153 511.612 406.578 510.087 404.368C507.648 401.151 504.813 396.88 503.6 395.14" stroke="#263238" stroke-width="0.988771" stroke-linecap="round" stroke-linejoin="round"/>
<path d="M501.583 419.992H539.407V439.517C539.407 440.388 539.061 441.223 538.445 441.838C537.83 442.454 536.995 442.8 536.124 442.8H504.866C503.995 442.8 503.16 442.454 502.545 441.838C501.929 441.223 501.583 440.388 501.583 439.517V419.992Z" fill="#263238" stroke="#263238" stroke-width="1.31836" stroke-linecap="round" stroke-linejoin="round"/>
<path d="M56.5048 254.3C56.5048 254.3 56.5048 249.593 49.913 242.988C43.3212 236.383 39.0761 232.626 39.0761 232.626C39.0761 232.626 35.7802 243.463 41.9106 250.055C46.4116 254.7 51.2982 258.956 56.518 262.777L56.5048 254.3Z" fill="#9AA846"/>
<path d="M46.9335 283.712C46.9335 283.712 46.9336 279.006 40.3417 272.414C33.7499 265.822 29.5048 262.052 29.5048 262.052C29.5048 262.052 26.2089 272.889 32.3393 279.48C36.8443 284.122 41.7306 288.378 46.9467 292.203L46.9335 283.712Z" fill="#9AA846"/>
<path d="M56.0829 262.33C56.0829 262.33 56.5839 257.636 63.8348 251.783C71.0858 245.929 75.7001 242.62 75.7001 242.62C75.7001 242.62 77.8358 253.734 71.0595 259.653C66.1035 263.787 60.8117 267.5 55.2391 270.754L56.0829 262.33Z" fill="#9AA846"/>
<path d="M44.5209 297.134C44.5209 297.134 45.5096 292.52 53.3407 287.457C61.1718 282.395 66.1024 279.547 66.1024 279.547C66.1024 279.547 67.0648 290.832 59.6952 296C54.3134 299.589 48.6425 302.724 42.7411 305.374L44.5209 297.134Z" fill="#9AA846"/>
<path d="M46.6962 334.946C46.6962 334.946 46.6962 330.239 53.288 323.647C59.8798 317.056 64.1249 313.285 64.1249 313.285C64.1249 313.285 67.4208 324.109 61.3036 330.714C56.7971 335.35 51.9109 339.601 46.6962 343.423V334.946Z" fill="#9AA846"/>
<path d="M46.5908 344.201C46.5908 344.201 47.25 339.534 41.6601 332.072C36.0703 324.61 32.4316 320.272 32.4316 320.272C32.4316 320.272 27.6196 330.529 32.748 337.925C36.5477 343.155 40.7767 348.059 45.3911 352.585L46.5908 344.201Z" fill="#9AA846"/>
<path d="M40.0779 371.597C40.0779 371.597 40.0779 366.89 46.6697 360.285C53.2615 353.68 57.5066 349.87 57.5066 349.87C57.5066 349.87 60.8025 360.707 54.6853 367.299C50.181 371.941 45.2947 376.197 40.0779 380.021V371.597Z" fill="#9AA846"/>
<path d="M44.4815 396.433C44.4815 396.433 43.2949 391.884 48.0015 383.829C52.708 375.774 55.9116 371.067 55.9116 371.067C55.9116 371.067 61.8443 380.705 57.586 388.641C54.4051 394.271 50.7581 399.625 46.6831 404.646L44.4815 396.433Z" fill="#9AA846"/>
<path d="M57.0982 253.088C56.7633 257.995 56.1603 262.88 55.292 267.722C52.6553 281.182 46.169 289.883 43.5586 301.999C40.9482 314.115 48.4365 329.843 46.4326 345.505C44.4287 361.167 38.3511 369.829 40.0781 380.257C41.8052 390.685 51.1524 419.94 51.1524 419.94" stroke="#263238" stroke-width="0.988771" stroke-linecap="round" stroke-linejoin="round"/>
<path d="M56.0168 265.454L63.1228 259.996" stroke="#263238" stroke-width="0.988771" stroke-linecap="round" stroke-linejoin="round"/>
<path d="M56.3467 259.179L53.3804 253.879" stroke="#263238" stroke-width="0.988771" stroke-linecap="round" stroke-linejoin="round"/>
<path d="M43.9539 301.484C43.9539 301.484 49.8997 297.028 56.0169 292.559" stroke="#263238" stroke-width="0.988771" stroke-linecap="round" stroke-linejoin="round"/>
<path d="M46.6172 291.36C43.7153 285.923 40.2747 280.791 36.3472 276.041" stroke="#263238" stroke-width="0.988771" stroke-linecap="round" stroke-linejoin="round"/>
<path d="M46.9335 341.655C50.3283 335.392 54.6137 329.655 59.6557 324.622" stroke="#263238" stroke-width="0.988771" stroke-linecap="round" stroke-linejoin="round"/>
<path d="M45.7733 348.259C43.9648 344.011 41.8086 339.919 39.3265 336.025C35.8593 330.91 35.3715 330.237 35.3715 330.237" stroke="#263238" stroke-width="0.988771" stroke-linecap="round" stroke-linejoin="round"/>
<path d="M40.0779 380.257C41.5852 376.512 43.3791 372.889 45.4436 369.42C47.498 366.2 49.8176 363.157 52.3782 360.323" stroke="#263238" stroke-width="0.988771" stroke-linecap="round" stroke-linejoin="round"/>
<path d="M46.6303 404.646C46.2847 401.069 46.8991 397.464 48.4101 394.204C50.9018 389.418 53.6835 383.13 54.8569 380.651" stroke="#263238" stroke-width="0.988771" stroke-linecap="round" stroke-linejoin="round"/>
<path d="M13.3151 317.227C13.3151 317.227 12.801 314.273 16.2155 309.422C19.6301 304.57 21.8845 301.749 21.8845 301.749C21.8845 301.749 25.1277 308.183 22.0163 312.995C19.6949 316.392 17.0931 319.589 14.238 322.553L13.3151 317.227Z" fill="#9AA846"/>
<path d="M22.5042 334.642C22.5042 334.642 22.0032 331.688 25.4178 326.837C28.8323 321.985 31.0867 319.164 31.0867 319.164C31.0867 319.164 34.3299 325.598 31.2054 330.396C28.884 333.794 26.2821 336.991 23.427 339.955L22.5042 334.642Z" fill="#9AA846"/>
<path d="M14.5018 322.184C14.5018 322.184 13.6713 319.297 8.4901 316.41C3.30894 313.522 -0.0001451 311.993 -0.0001451 311.993C-0.0001451 311.993 -0.131981 319.191 4.77232 322.171C8.33562 324.238 12.0666 326.002 15.9257 327.444L14.5018 322.184Z" fill="#9AA846"/>
<path d="M25.4705 342.75C25.4705 342.75 24.3499 339.968 18.8787 337.648C13.4075 335.328 10.0325 334.049 10.0325 334.049C10.0325 334.049 10.6521 341.221 15.8333 343.66C19.5945 345.33 23.4884 346.683 27.4744 347.707L25.4705 342.75Z" fill="#9AA846"/>
<path d="M28.2127 366.744C28.2127 366.744 27.6854 363.791 22.847 360.416C18.0086 357.041 14.9369 355.143 14.9369 355.143C14.9369 355.143 14.0404 362.288 18.6019 365.755C21.9295 368.182 25.4579 370.321 29.1488 372.149L28.2127 366.744Z" fill="#9AA846"/>
<path d="M29.294 372.531C29.294 372.531 28.3579 369.644 31.0606 364.37C33.7632 359.097 35.5957 355.985 35.5957 355.985C35.5957 355.985 39.7222 361.892 37.3096 367.086C35.4918 370.771 33.3707 374.299 30.9683 377.633L29.294 372.531Z" fill="#9AA846"/>
<path d="M37.5599 396.353C37.5599 396.353 37.9027 393.374 42.5565 389.682C47.2103 385.991 50.1635 383.921 50.1635 383.921C50.1635 383.921 51.4818 391.001 47.1049 394.731C43.9225 397.34 40.5268 399.678 36.9535 401.719L37.5599 396.353Z" fill="#9AA846"/>
<path d="M36.3471 388.999C36.3471 388.999 35.833 386.045 30.9814 382.631C26.1298 379.216 23.0712 377.357 23.0712 377.357C23.0712 377.357 22.1748 384.516 26.7363 387.983C30.0697 390.402 33.5974 392.54 37.2832 394.377L36.3471 388.999Z" fill="#9AA846"/>
<path d="M36.281 405.055C36.281 405.055 36.5315 402.076 32.7083 397.541C28.885 393.005 26.3669 390.382 26.3669 390.382C26.3669 390.382 23.7302 397.079 27.2239 401.588C29.8269 404.772 32.6935 407.731 35.7932 410.434L36.281 405.055Z" fill="#9AA846"/>
<path d="M12.801 316.542C13.5449 319.583 14.456 322.58 15.53 325.52C18.6282 333.681 23.6511 338.427 26.6043 345.77C29.5574 353.113 26.6043 363.752 29.531 373.337C32.4578 382.921 37.2434 387.707 37.283 394.431C37.3225 401.154 34.6463 419.862 34.6463 419.862" stroke="#263238" stroke-width="0.988771" stroke-linecap="round" stroke-linejoin="round"/>
<path d="M14.8184 324.173L9.78223 321.523" stroke="#263238" stroke-width="0.988771" stroke-linecap="round" stroke-linejoin="round"/>
<path d="M13.9349 320.272L15.2269 316.634" stroke="#263238" stroke-width="0.988771" stroke-linecap="round" stroke-linejoin="round"/>
<path d="M26.3672 345.452C26.3672 345.452 22.1484 343.303 17.8374 341.167" stroke="#263238" stroke-width="0.988771" stroke-linecap="round" stroke-linejoin="round"/>
<path d="M23.4006 339.032C24.7436 335.447 26.3841 331.981 28.3049 328.67" stroke="#263238" stroke-width="0.988771" stroke-linecap="round" stroke-linejoin="round"/>
<path d="M28.7929 370.963C25.9787 367.431 22.6709 364.323 18.9711 361.734" stroke="#263238" stroke-width="0.988771" stroke-linecap="round" stroke-linejoin="round"/>
<path d="M30.243 374.983C30.9156 372.123 31.824 369.323 32.9589 366.612C34.5804 363.026 34.8178 362.564 34.8178 362.564" stroke="#263238" stroke-width="0.988771" stroke-linecap="round" stroke-linejoin="round"/>
<path d="M37.0457 399.531C38.6853 397.497 40.5031 395.613 42.4773 393.902C43.7334 392.972 44.9148 391.945 46.0105 390.83" stroke="#263238" stroke-width="0.988771" stroke-linecap="round" stroke-linejoin="round"/>
<path d="M37.2831 394.431C35.9337 392.247 34.4175 390.171 32.7479 388.221C31.1097 386.427 29.3237 384.773 27.4086 383.277" stroke="#263238" stroke-width="0.988771" stroke-linecap="round" stroke-linejoin="round"/>
<path d="M35.8197 410.434C35.6498 408.157 34.8712 405.966 33.5653 404.093C31.4955 401.351 29.0565 397.712 28.0546 396.288" stroke="#263238" stroke-width="0.988771" stroke-linecap="round" stroke-linejoin="round"/>
<path d="M24.3368 419.992H62.1474V439.517C62.1474 440.388 61.8015 441.223 61.1859 441.838C60.5703 442.454 59.7353 442.8 58.8647 442.8H27.6195C26.7489 442.8 25.9139 442.454 25.2983 441.838C24.6827 441.223 24.3368 440.388 24.3368 439.517V419.992Z" fill="#263238" stroke="#263238" stroke-width="1.31836" stroke-linecap="round" stroke-linejoin="round"/>
<path d="M384.632 175.013C380.023 180.761 376.891 187.551 375.509 194.788C373.083 207.088 367.124 230.199 367.862 238.215C368.6 246.231 370.499 250.7 377.75 252.005C385.001 253.31 389.114 246.969 390.604 241.564C391.557 238.006 392.305 234.396 392.845 230.753L394.335 201.314C394.335 201.314 391.698 183.661 390.38 179.943C389.061 176.226 384.632 175.013 384.632 175.013Z" fill="#9AA846" stroke="#263238" stroke-width="1.31836" stroke-linecap="round" stroke-linejoin="round"/>
<path d="M481.584 169.106C481.584 169.106 484.221 168.539 486.725 177.675C489.23 186.811 492.249 199.969 497.206 216.158C502.163 232.348 503.113 237.674 502.73 241.299C502.348 244.925 499.487 248.919 489.547 248.919C479.606 248.919 475.045 245.109 472.408 236.54C469.771 227.971 470.114 201.485 469.929 198.057C469.745 194.629 478.565 167.392 481.584 169.106Z" fill="#9AA846" stroke="#263238" stroke-width="1.31836" stroke-linecap="round" stroke-linejoin="round"/>
<path d="M413.583 453.477C413.583 453.477 407.109 460.345 403.299 464.722C399.489 469.099 398.158 471.762 404.446 474.439C410.735 477.115 420.438 473.12 423.299 468.717C426.16 464.314 432.251 459.383 432.251 459.383C432.251 459.383 435.494 455.771 431.301 450.629C427.109 445.487 415.494 451.38 413.583 453.477Z" fill="white" stroke="#263238" stroke-width="1.31836" stroke-linecap="round" stroke-linejoin="round"/>
<path d="M452.448 459.199C452.448 459.199 458.921 460.148 462.349 463.154C465.777 466.16 477.774 472.871 485.776 469.641C493.779 466.411 488.637 461.058 484.247 457.248C481.791 455.07 479.114 453.157 476.258 451.54C476.258 451.54 463.496 450.59 457.8 453.438C452.105 456.286 452.448 459.199 452.448 459.199Z" fill="white" stroke="#263238" stroke-width="1.31836" stroke-linecap="round" stroke-linejoin="round"/>
<path d="M406.16 370.631C406.16 370.631 409.206 393.478 407.676 400.347C406.147 407.215 401.77 411.197 405.04 417.868C407.486 423.021 409.28 428.46 410.379 434.057C410.748 436.338 408.665 436.918 410.379 439.331C411.628 440.895 412.653 442.625 413.424 444.472C413.424 445.052 411.131 448.282 411.131 449.047C411.131 449.812 412.277 454.571 412.277 454.571C412.277 454.571 418.368 453.253 422.758 454.953C425.928 456.322 428.931 458.047 431.71 460.095C431.71 460.095 435.665 458.579 436.984 456.285C437.732 455.09 438.184 453.734 438.302 452.33C438.5 451.565 440.398 447.57 440.214 444.512C440.029 441.453 437.933 434.993 437.933 431.183C437.933 427.373 440.78 423.181 440.78 417.09C440.78 410.999 437.933 371.949 437.933 371.949L440.569 371C440.569 371 444.762 394.23 444.762 405.093C444.762 415.956 441.519 429.469 443.615 432.132C445.711 434.795 448.19 437.089 448.19 437.656C448.19 438.223 445.711 442.416 446.278 444.512C447.192 447.264 447.958 450.063 448.572 452.897C448.572 454.044 450.668 458.421 452.382 459.185C454.096 459.95 455.019 458.236 465.144 456.14C475.269 454.044 480.964 454.61 479.988 451.565C479.013 448.52 478.09 444.512 476.943 443.76C475.796 443.009 477.325 442.442 476.943 439.568C476.561 436.694 474.465 433.662 472.566 429.087C470.668 424.512 473.331 419.568 474.095 414.809C474.86 410.05 473.713 402.944 471.801 395.179C469.89 387.414 471.617 368.324 471.617 368.324L472.566 360.901C472.566 360.901 443.417 363.538 425.514 363.38C407.61 363.222 406.279 363.182 406.279 363.182C406.279 363.182 405.013 364.527 406.16 370.631Z" fill="#263238" stroke="#263238" stroke-width="1.31836" stroke-linecap="round" stroke-linejoin="round"/>
<path d="M480.054 291.016C480.054 291.016 482.691 325.675 486.158 343.75C488.158 353.93 489.431 364.239 489.968 374.6H476.06C475.493 374.6 477.009 310.409 477.378 304.727C477.881 300.089 478.776 295.502 480.054 291.016Z" fill="#9AA846" stroke="#263238" stroke-width="1.31836" stroke-linecap="round" stroke-linejoin="round"/>
<path d="M422.732 149.872C422.732 149.872 406.543 160.722 398.158 164.532C389.773 168.342 385.199 173.299 384.632 175.079C384.065 176.859 393.781 204.215 393.781 204.215C393.781 204.215 393.201 294.694 393.201 309.934C393.201 325.175 388.442 370.961 389.009 370.961C389.576 370.961 404.829 380.862 425.778 381.429C446.726 381.996 453.463 378.95 460.055 378.95C466.647 378.95 479.83 378.95 480.055 377.052C480.279 375.154 480.437 333.045 480.635 313.428C480.832 293.811 481.017 279.915 480.635 276.672C480.252 273.429 474.913 203.727 474.913 203.727C474.913 203.727 478.868 192.099 481.202 182.765C483.535 173.431 483.496 172.297 480.635 168.105C477.774 163.913 456.245 152.68 452.448 151.151C447.766 149.513 442.891 148.49 437.946 148.106C434.347 147.96 422.732 149.872 422.732 149.872Z" fill="#9AA846" stroke="#263238" stroke-width="1.31836" stroke-linecap="round" stroke-linejoin="round"/>
<path d="M386.925 227.391C386.925 227.391 389.391 233.099 392.449 235.578C395.508 238.056 402.535 239.203 404.064 243.013C405.593 246.823 404.064 249.671 402.35 254.246C400.636 258.82 401.586 266.44 395.297 267.429C389.008 268.418 387.11 266.111 381.968 262.472C376.827 258.834 373.584 258.293 370.538 252.769C367.493 247.245 366.583 239.585 369.22 235.433" fill="#9AA846"/>
<path d="M386.925 227.391C386.925 227.391 389.391 233.099 392.449 235.578C395.508 238.056 402.535 239.203 404.064 243.013C405.593 246.823 404.064 249.671 402.35 254.246C400.636 258.82 401.586 266.44 395.297 267.429C389.008 268.418 387.11 266.111 381.968 262.472C376.827 258.834 373.584 258.293 370.538 252.769C367.493 247.245 366.583 239.585 369.22 235.433" stroke="#263238" stroke-width="1.31836" stroke-linecap="round" stroke-linejoin="round"/>
<path d="M421.968 142.436L421.401 158.44C421.401 158.44 419.871 160.721 429.008 161.301C434.884 161.601 440.776 161.158 446.542 159.983L445.012 142.646C445.012 142.646 435.494 146.602 429.97 144.743C427.367 143.765 424.691 142.994 421.968 142.436Z" fill="white" stroke="#263238" stroke-width="1.31836" stroke-linecap="round" stroke-linejoin="round"/>
<path d="M418.342 138.442C418.342 138.442 417.024 156.899 416.061 162.437C415.099 167.974 415.297 171.388 417.38 172.733C419.463 174.078 431.671 178.824 437.959 178.441C444.248 178.059 453.78 172.351 454.518 170.637C455.256 168.923 448.809 142.055 448.809 142.055L447.86 143.202C447.86 143.202 449.574 157.295 448.994 157.704C448.414 158.112 426.331 156.557 422.337 156.385C418.342 156.214 419.476 156.003 419.476 156.003L419.291 139.813L418.342 138.442Z" fill="white" stroke="#263238" stroke-width="1.31836" stroke-linecap="round" stroke-linejoin="round"/>
<path d="M417.749 160.405C417.749 160.405 438.553 163.477 451.037 161.064" stroke="#263238" stroke-width="0.65918" stroke-miterlimit="10"/>
<path d="M416.865 165.296C416.865 165.296 431.367 171.426 451.037 165.955" stroke="#263238" stroke-width="0.65918" stroke-miterlimit="10"/>
<path d="M418.394 170.926C418.394 170.926 432.198 178.375 451.037 170.491" stroke="#263238" stroke-width="0.65918" stroke-miterlimit="10"/>
<path d="M452.065 119.009C452.54 113.156 452.949 107.144 451.485 104.151C449.205 99.3918 442.349 93.8679 432.448 94.2502C422.547 94.6326 414.163 98.4426 414.347 110.637C414.347 110.637 414.769 114.25 415.257 118.693C414.363 120.637 414.047 122.797 414.347 124.915C414.654 126.948 415.367 128.898 416.443 130.65C416.536 131.784 416.602 132.76 416.628 133.485C416.826 138.626 420.253 144.73 423.299 146.826C426.344 148.923 432.066 152.1 435.678 152.1C439.291 152.1 445.777 148.672 448.862 143.715C451.261 139.76 451.499 137.123 451.499 132.483H451.683C452.227 130.043 452.545 127.558 452.632 125.06C452.724 123.027 452.533 120.99 452.065 119.009Z" fill="white" stroke="#263238" stroke-width="1.31836" stroke-linecap="round" stroke-linejoin="round"/>
<path d="M416.061 120.156C416.061 120.156 416.628 124.916 417.59 124.731C418.553 124.546 419.687 117.678 419.687 117.678L416.061 120.156Z" fill="#263238" stroke="#263238" stroke-width="1.31836" stroke-linecap="round" stroke-linejoin="round"/>
<path d="M448.44 119.589C448.44 119.589 448.44 124.862 449.758 125.68C451.077 126.497 452.052 121.105 452.052 121.105C450.966 120.356 449.736 119.84 448.44 119.589Z" fill="#263238" stroke="#263238" stroke-width="1.31836" stroke-linecap="round" stroke-linejoin="round"/>
<path d="M451.485 104.151C449.205 99.3918 442.349 93.8679 432.448 94.2502C422.547 94.6326 414.163 98.4426 414.347 110.637C414.347 110.637 414.769 114.25 415.257 118.693C414.664 119.984 414.32 121.374 414.242 122.793C417.946 119.84 424.894 115.595 433.582 116.346C440.363 117.128 446.877 119.44 452.632 123.109C452.57 121.741 452.38 120.382 452.065 119.049C452.54 113.156 452.949 107.183 451.485 104.151Z" fill="#9AA846" stroke="#263238" stroke-width="1.31836" stroke-linecap="round" stroke-linejoin="round"/>
<path d="M431.104 123.583L429.97 130.438C429.97 130.438 427.874 130.636 428.651 131.967C429.429 133.299 433.411 134.815 435.309 134.248C437.208 133.681 439.119 131.77 438.935 131.005C438.868 130.78 438.746 130.576 438.58 130.41C438.414 130.244 438.21 130.123 437.985 130.056L435.507 123.016" stroke="#263238" stroke-width="1.31836" stroke-linecap="round" stroke-linejoin="round"/>
<path d="M429.008 137.676C432.665 138.465 436.461 138.334 440.055 137.294" stroke="#263238" stroke-width="1.31836" stroke-linecap="round" stroke-linejoin="round"/>
<path d="M426.924 123.293C426.924 124.295 426.41 125.113 425.777 125.113C425.144 125.113 424.63 124.295 424.63 123.293C424.63 122.292 425.144 121.487 425.777 121.487C426.41 121.487 426.924 122.305 426.924 123.293Z" fill="#263238"/>
<path d="M441.4 123.203C441.4 124.205 440.886 125.009 440.253 125.009C439.62 125.009 439.106 124.205 439.106 123.203C439.106 122.201 439.62 121.396 440.253 121.396C440.886 121.396 441.4 122.201 441.4 123.203Z" fill="#263238"/>
<path d="M422.534 120.538C422.534 120.538 423.853 117.295 428.058 118.442" stroke="#263238" stroke-width="1.31836" stroke-linecap="round" stroke-linejoin="round"/>
<path d="M436.628 118.628C436.628 118.628 440.583 115.78 443.483 120.724" stroke="#263238" stroke-width="1.31836" stroke-linecap="round" stroke-linejoin="round"/>
<path d="M400.636 251.202C400.636 251.202 412.251 253.839 414.914 253.298C418.412 252.656 421.615 250.92 424.064 248.341C427.491 244.913 430.352 242.053 430.352 244.913C430.368 247.196 429.476 249.392 427.874 251.017C426.555 252.533 424.064 254.247 423.483 256.726C422.903 259.204 423.681 261.103 426.727 262.25C429.772 263.397 439.304 265.111 439.304 267.523C439.304 269.936 438.539 275.723 435.111 277.622C431.684 279.52 423.246 278.202 423.246 278.202C423.246 278.202 430.102 282.012 428.77 282.961C427.439 283.91 423.497 282.579 421.532 280.865C419.568 279.151 418.896 278.953 413.345 274.959C407.795 270.964 403.062 266.192 400.386 264.676C398.943 263.999 397.61 263.111 396.431 262.039C394.901 260.721 394.335 258.084 395.482 254.986C395.864 254.069 396.435 253.244 397.157 252.562C397.879 251.881 398.737 251.359 399.674 251.031L400.636 251.202Z" fill="white" stroke="#263238" stroke-width="1.31836" stroke-linecap="round" stroke-linejoin="round"/>
<path d="M491.102 229.488C491.102 229.488 477.391 232.125 476.06 233.101C474.728 234.076 476.06 238.058 476.06 238.058C476.06 238.058 464.445 243.582 460.055 246.627C455.665 249.672 459.686 255.776 459.87 256.541C459.87 256.541 463.298 267.773 469.006 271.584C474.715 275.394 480.634 274.062 486.343 267.958C492.051 261.854 495.677 253.456 498.34 250.635C501.003 247.813 503.864 245.111 502.915 238.77C501.965 232.428 497.008 231.716 497.008 231.716" fill="#9AA846"/>
<path d="M491.102 229.488C491.102 229.488 477.391 232.125 476.06 233.101C474.728 234.076 476.06 238.058 476.06 238.058C476.06 238.058 464.445 243.582 460.055 246.627C455.665 249.672 459.686 255.776 459.87 256.541C459.87 256.541 463.298 267.773 469.006 271.584C474.715 275.394 480.634 274.062 486.343 267.958C492.051 261.854 495.677 253.456 498.34 250.635C501.003 247.813 503.864 245.111 502.915 238.77C501.965 232.428 497.008 231.716 497.008 231.716" stroke="#263238" stroke-width="1.31836" stroke-linecap="round" stroke-linejoin="round"/>
<path d="M463.113 254.63C463.113 254.63 454.346 256.911 451.868 257.108C449.389 257.306 449.007 257.675 447.491 256.541C445.975 255.408 438.921 251.202 435.625 247.392C432.33 243.582 429.917 242.817 430.352 244.914C430.787 247.01 429.97 248.539 432.25 250.055C434.531 251.571 436.825 255.777 436.825 257.491C436.825 259.205 436.627 259.771 431.868 261.446C427.109 263.12 416.246 265.256 417.366 266.587C418.487 267.919 420.794 268.301 423.272 268.117C425.751 267.932 436.034 266.403 436.799 266.97C437.047 267.226 437.231 267.536 437.338 267.876C437.446 268.216 437.472 268.576 437.416 268.928C437.359 269.279 437.222 269.613 437.014 269.903C436.806 270.192 436.534 270.429 436.219 270.595C434.505 271.729 428.414 271.729 424.802 272.111C421.189 272.494 420.992 273.43 422.508 274.208C424.963 275.146 427.579 275.594 430.207 275.526C433.252 275.526 436.799 275.223 435.27 276.185C433.74 277.147 431.657 277.319 427.847 277.899C424.037 278.479 422.706 276.752 423.272 278.281C423.839 279.811 428.414 279.797 434.136 279.6C439.328 279.321 444.367 277.749 448.796 275.025C452.606 272.744 466.515 269.316 467.464 268.552C468.413 267.787 469.942 263.41 468.98 258.071C468.018 252.731 463.113 254.63 463.113 254.63Z" fill="white" stroke="#263238" stroke-width="1.31836" stroke-linecap="round" stroke-linejoin="round"/>
<path d="M478.156 232.349C481.872 229.28 485.892 226.598 490.153 224.347" stroke="#263238" stroke-width="1.31836" stroke-linecap="round" stroke-linejoin="round"/>
<path d="M425.58 268.222C425.58 268.222 436.43 266.982 437.511 266.824C438.592 266.666 440.609 267.918 439.673 269.303C438.737 270.687 438.289 270.397 434.399 271.162C430.556 271.746 426.671 272.006 422.785 271.939" fill="white"/>
<path d="M425.58 268.222C425.58 268.222 436.43 266.982 437.511 266.824C438.592 266.666 440.609 267.918 439.673 269.303C438.737 270.687 438.289 270.397 434.399 271.162C430.556 271.746 426.671 272.006 422.785 271.939" stroke="#263238" stroke-width="1.31836" stroke-linecap="round" stroke-linejoin="round"/>
<path d="M426.819 275.658C426.819 275.658 438.908 274.88 438.592 275.816C438.276 276.752 437.511 277.978 433.173 278.294C428.836 278.611 423.879 278.914 419.845 276.897" fill="white"/>
<path d="M426.819 275.658C426.819 275.658 438.908 274.88 438.592 275.816C438.276 276.752 437.511 277.978 433.173 278.294C428.836 278.611 423.879 278.914 419.845 276.897" stroke="#263238" stroke-width="1.31836" stroke-linecap="round" stroke-linejoin="round"/>
<path d="M306.043 444.088C306.043 444.088 308.087 446.132 299.887 451.155C291.687 456.178 284.857 458.432 284.857 461.398C284.857 464.365 293.967 467.318 303.314 465.05C312.662 462.783 316.498 462.084 321.772 461.174C327.045 460.264 328.601 455.703 328.601 449.309C328.601 442.915 314.705 441.333 313.11 441.109C311.515 440.885 307.177 441.583 306.043 444.088Z" fill="white" stroke="#263238" stroke-width="1.31836" stroke-linecap="round" stroke-linejoin="round"/>
<path d="M326.544 449.322C323.091 454.495 318.862 459.106 314.006 462.993C306.953 468.267 306.096 470.745 309.682 472.103C313.268 473.461 323.802 473.922 330.908 471.154C338.014 468.385 341.455 464.325 343.432 462.492C345.41 460.66 346.623 461.82 346.623 454.582C346.623 447.344 338.818 444.787 332.464 445.222C326.109 445.657 326.544 449.322 326.544 449.322Z" fill="white" stroke="#263238" stroke-width="1.31836" stroke-linecap="round" stroke-linejoin="round"/>
<path d="M298.753 300.796C298.753 300.796 300.797 342.258 301.482 354.335C302.168 366.411 307.177 411.736 308.074 422.441C308.97 433.146 308.984 436.337 308.984 436.337C308.984 436.337 304.884 439.303 304.884 439.988C304.884 440.674 304.435 447.042 304.435 447.042C307.453 448.716 310.662 450.017 313.993 450.918C317.655 451.743 321.425 451.974 325.16 451.603C325.16 451.603 332.675 454.108 339.055 455.927C345.436 457.747 347.941 456.837 347.941 456.837C347.941 456.837 349.761 447.727 350.222 444.774C350.683 441.821 358.422 410.365 358.422 395.995C358.422 381.625 356.603 375.033 353.861 366.608C351.118 358.184 357.513 328.112 359.793 317.17C361.093 311.072 362.079 304.912 362.746 298.713C362.746 298.713 343.169 308.772 298.753 300.796Z" fill="#263238" stroke="#263238" stroke-width="1.31836" stroke-linecap="round" stroke-linejoin="round"/>
<path d="M324.316 314.691C324.316 314.691 323.182 345.014 323.182 356.615C323.182 368.217 326.135 382.35 327.506 396.021C328.878 409.692 327.955 432.012 326.36 435.888C324.764 439.764 323.63 441.162 323.855 444.088C324.079 447.015 324.316 451.155 324.316 451.155" stroke="white" stroke-width="1.31836" stroke-linecap="round" stroke-linejoin="round"/>
<path d="M320.612 138.375C320.612 138.375 319.293 134.275 317.197 135.87C315.101 137.466 316.512 140.419 318.331 143.385C320.15 146.351 322.207 147.024 322.431 145.429C322.655 143.833 320.612 138.375 320.612 138.375Z" fill="white" stroke="#263238" stroke-width="1.31836" stroke-linecap="round" stroke-linejoin="round"/>
<path d="M320.612 140.247L318.344 133.655C318.344 133.655 308.773 129.779 311.752 120.208C314.732 110.636 337.5 101.922 343.63 101.922C349.761 101.922 361.626 110.122 363.669 119.693C365.713 129.265 358.884 137.913 358.884 137.913C358.884 137.913 355.931 146.351 353.61 145.823C351.29 145.296 352.701 138.757 349.734 133.523C346.768 128.289 344.949 125.613 341.758 126.931C338.568 128.25 325.358 132.205 324.224 133.984C323.09 135.764 321.073 141.328 320.612 140.247Z" fill="#263238" stroke="#263238" stroke-width="1.31836" stroke-linecap="round" stroke-linejoin="round"/>
<path d="M366.86 234.048L368.007 239.967L353.874 261.839L357.064 266.849C363.765 262.38 369.889 257.102 375.297 251.134C384.407 241.114 385.317 239.743 385.317 235.643C385.317 231.543 382.126 224.477 382.126 224.477C382.126 224.477 375.732 234.048 366.86 234.048Z" fill="white" stroke="#263238" stroke-width="1.31836" stroke-linecap="round" stroke-linejoin="round"/>
<path d="M289.63 220.839C289.63 220.839 285.082 231.768 285.991 235.196C286.901 238.624 302.616 258.649 302.616 258.649L305.358 251.135C305.358 251.135 299.425 238.834 299.425 234.734C299.425 230.634 301.482 222.658 301.482 222.658L289.63 220.839Z" stroke="#263238" stroke-width="1.31836" stroke-linecap="round" stroke-linejoin="round"/>
<path d="M329.959 166.615C329.959 166.615 310.368 174.143 306.716 175.277C303.064 176.411 300.573 177.096 300.348 178.243C300.124 179.39 289.182 207.392 287.165 211.268C285.148 215.144 282.392 219.468 282.392 219.468C285.043 221.133 287.78 222.656 290.593 224.03C293.454 225.285 296.424 226.278 299.465 226.996L300.783 242.711L287.402 301.932C287.402 301.932 314.283 309.46 332.226 308.774C343.651 308.385 354.946 306.233 365.713 302.393C369.127 301.259 374.361 299.203 374.361 299.203L357.222 234.735L358.541 225.164L359.451 234.511C359.451 234.511 368.56 236.554 373.807 235.196C379.055 233.838 385.673 228.605 385.673 228.605L368.824 175.989L337.5 167.301L329.959 166.615Z" fill="#9AA846" stroke="#263238" stroke-width="1.31836" stroke-linecap="round" stroke-linejoin="round"/>
<path d="M352.094 171.335L337.5 167.301L329.985 166.615L323.235 169.252C323.09 172.851 322.919 178.942 322.919 186.259C322.919 198.124 324.237 208.592 327.704 206.535C331.172 204.479 347.48 182.396 350.261 176.213C350.995 174.636 351.608 173.005 352.094 171.335Z" fill="#9AA846" stroke="#263238" stroke-width="1.31836" stroke-linecap="round" stroke-linejoin="round"/>
<path d="M358.659 225.163C358.211 224.715 356.155 205.124 356.155 205.124" stroke="#263238" stroke-width="1.31836" stroke-linecap="round" stroke-linejoin="round"/>
<path d="M299.425 226.995C299.425 226.995 297.843 219.243 298.292 216.277C298.74 213.311 301.904 195.776 301.904 195.776" stroke="#263238" stroke-width="1.31836" stroke-linecap="round" stroke-linejoin="round"/>
<path d="M307.177 259.797C307.177 259.797 296.697 263.211 296.697 263.897C296.697 264.583 296.472 267.773 296.472 267.773L307.177 262.75V259.797Z" stroke="#263238" stroke-width="1.31836" stroke-linecap="round" stroke-linejoin="round"/>
<path d="M334.968 261.391L334.52 264.344L357.288 270.276L358.435 267.996L334.968 261.391Z" stroke="#263238" stroke-width="1.31836" stroke-linecap="round" stroke-linejoin="round"/>
<path d="M342.483 216.093C342.172 216.093 341.873 215.969 341.653 215.749C341.433 215.529 341.31 215.231 341.31 214.919C341.31 210.964 343.287 201.419 345.186 192.204C346.715 184.848 348.152 177.9 348.152 175.738C348.209 174.536 348.009 173.336 347.566 172.217C347.123 171.099 346.446 170.088 345.581 169.251C342.852 166.72 338.014 165.692 331.185 166.193C316.92 167.248 315.878 199.152 315.865 199.455C315.858 199.762 315.732 200.053 315.512 200.268C315.293 200.482 314.999 200.602 314.692 200.602C314.381 200.588 314.087 200.454 313.873 200.228C313.659 200.001 313.541 199.701 313.545 199.389C313.545 197.992 314.679 165.112 331.04 163.793C338.541 163.24 343.986 164.479 347.203 167.472C348.302 168.528 349.166 169.804 349.739 171.217C350.311 172.63 350.579 174.148 350.525 175.672C350.525 178.084 349.128 184.808 347.519 192.613C345.726 201.288 343.683 211.07 343.683 214.854C343.692 215.015 343.667 215.177 343.611 215.329C343.554 215.481 343.467 215.619 343.354 215.736C343.242 215.852 343.106 215.944 342.956 216.006C342.806 216.067 342.645 216.097 342.483 216.093Z" fill="#263238" stroke="#263238" stroke-width="1.31836" stroke-linecap="round" stroke-linejoin="round"/>
<path d="M327.454 159.561C327.454 159.561 327.454 166.153 327.229 167.471C327.005 168.79 327.229 174.524 327.229 182.276C327.229 190.028 328.548 195.262 330.407 193.43C332.266 191.597 344.315 175.434 344.988 172.244C345.391 170.451 345.62 168.623 345.673 166.786L346.583 157.676C346.583 157.676 332.463 161.776 326.544 159.943" fill="white"/>
<path d="M327.454 159.561C327.454 159.561 327.454 166.153 327.229 167.471C327.005 168.79 327.229 174.524 327.229 182.276C327.229 190.028 328.548 195.262 330.407 193.43C332.266 191.597 344.315 175.434 344.988 172.244C345.391 170.451 345.62 168.623 345.673 166.786L346.583 157.676C346.583 157.676 332.463 161.776 326.544 159.943" stroke="#263238" stroke-width="1.31836" stroke-linecap="round" stroke-linejoin="round"/>
<path d="M350.921 145.891C352.107 153.804 352.412 161.825 351.83 169.806C350.921 183.701 349.26 190.214 345.239 192.218C341.218 194.222 346.412 196.476 352.569 196.7C358.725 196.925 367.822 196.028 369.417 177.795C371.013 159.562 357.803 147.723 356.669 145.443C356.372 144.914 355.93 144.482 355.396 144.196C354.861 143.91 354.256 143.784 353.652 143.831C353.047 143.878 352.469 144.097 351.985 144.462C351.501 144.827 351.132 145.323 350.921 145.891Z" fill="#263238" stroke="#263238" stroke-width="1.31836" stroke-linecap="round" stroke-linejoin="round"/>
<path d="M306.492 215.393H306.399C306.241 215.38 306.087 215.335 305.946 215.261C305.805 215.187 305.68 215.086 305.58 214.963C305.479 214.84 305.404 214.698 305.359 214.545C305.314 214.393 305.3 214.233 305.318 214.075C305.318 213.429 306.637 198.188 314.692 198.188C322.747 198.188 322.998 212.928 322.998 213.547C322.998 213.859 322.874 214.157 322.654 214.377C322.434 214.597 322.135 214.721 321.824 214.721C321.513 214.721 321.215 214.597 320.995 214.377C320.775 214.157 320.651 213.859 320.651 213.547C320.651 213.416 320.48 200.601 314.758 200.601C309.854 200.601 308.021 210.502 307.731 214.325C307.701 214.628 307.555 214.908 307.325 215.107C307.094 215.306 306.796 215.408 306.492 215.393Z" fill="#263238"/>
<path d="M306.492 213.323C306.492 213.323 306.492 224.714 306.953 226.995C307.415 229.275 313.097 234.048 319.939 237.014" stroke="#263238" stroke-width="2.63672" stroke-linecap="round" stroke-linejoin="round"/>
<path d="M321.297 211.952C321.297 211.952 321.758 223.343 319.478 228.353C317.197 233.362 310.368 235.419 307.401 236.553" stroke="#263238" stroke-width="2.63672" stroke-linecap="round" stroke-linejoin="round"/>
<path d="M323.13 237.463C323.13 237.056 323.009 236.658 322.783 236.32C322.557 235.982 322.236 235.718 321.86 235.563C321.484 235.407 321.071 235.366 320.672 235.446C320.273 235.525 319.906 235.721 319.619 236.009C319.331 236.296 319.135 236.663 319.056 237.062C318.977 237.461 319.017 237.874 319.173 238.25C319.329 238.626 319.592 238.947 319.93 239.173C320.269 239.399 320.666 239.52 321.073 239.52C321.344 239.521 321.612 239.469 321.862 239.367C322.112 239.264 322.34 239.112 322.531 238.921C322.722 238.73 322.874 238.502 322.977 238.252C323.079 238.002 323.131 237.733 323.13 237.463Z" fill="white" stroke="#263238" stroke-width="1.31836" stroke-linecap="round" stroke-linejoin="round"/>
<path d="M308.997 237.015C308.999 236.607 308.881 236.208 308.656 235.868C308.431 235.527 308.11 235.262 307.733 235.104C307.357 234.947 306.942 234.905 306.542 234.984C306.142 235.063 305.774 235.259 305.486 235.548C305.198 235.836 305.001 236.204 304.922 236.604C304.843 237.004 304.885 237.419 305.043 237.795C305.2 238.171 305.466 238.492 305.806 238.717C306.146 238.942 306.545 239.061 306.953 239.059C307.495 239.059 308.015 238.843 308.398 238.46C308.781 238.077 308.997 237.557 308.997 237.015Z" fill="white" stroke="#263238" stroke-width="1.31836" stroke-linecap="round" stroke-linejoin="round"/>
<path d="M349.365 219.242C349.365 217.845 348.95 216.478 348.174 215.316C347.398 214.154 346.294 213.249 345.003 212.714C343.711 212.179 342.291 212.039 340.92 212.312C339.549 212.584 338.29 213.257 337.302 214.245C336.314 215.234 335.64 216.493 335.368 217.864C335.095 219.234 335.235 220.655 335.77 221.946C336.305 223.238 337.211 224.341 338.373 225.118C339.535 225.894 340.901 226.309 342.298 226.309C343.226 226.309 344.145 226.126 345.003 225.771C345.86 225.416 346.639 224.895 347.295 224.239C347.951 223.583 348.472 222.804 348.827 221.946C349.182 221.089 349.365 220.17 349.365 219.242Z" fill="white" stroke="#263238" stroke-width="1.31836" stroke-linecap="round" stroke-linejoin="round"/>
<path d="M346.135 219.243C346.135 218.477 345.908 217.727 345.482 217.09C345.056 216.452 344.45 215.956 343.742 215.662C343.034 215.369 342.255 215.292 341.503 215.442C340.751 215.591 340.06 215.96 339.518 216.502C338.976 217.045 338.607 217.735 338.457 218.487C338.308 219.239 338.385 220.018 338.678 220.726C338.971 221.435 339.468 222.04 340.106 222.466C340.743 222.892 341.492 223.119 342.259 223.119C343.287 223.119 344.273 222.711 345 221.984C345.727 221.257 346.135 220.271 346.135 219.243Z" fill="white" stroke="#263238" stroke-width="1.31836" stroke-linecap="round" stroke-linejoin="round"/>
<path d="M346.135 122.423C346.135 122.423 326.36 130.175 323.802 131.533C322.716 132.186 321.562 132.721 320.361 133.128C320.361 133.128 321.508 150.451 321.956 155C322.405 159.548 329.708 163.885 336.076 163.661C342.444 163.437 347.704 160.009 348.838 157.966C349.972 155.922 353.162 149.766 353.162 149.766C353.162 149.766 360.69 148.447 361.138 141.855C361.586 135.264 359.319 136.582 356.814 137.98C354.309 139.377 352.938 140.26 352.938 140.26C353.425 137.845 353.023 135.335 351.804 133.194C349.774 129.7 346.583 125.613 346.135 122.423Z" fill="white" stroke="#263238" stroke-width="1.31836" stroke-linecap="round" stroke-linejoin="round"/>
<path d="M329.959 143.609C329.959 143.609 331.778 146.352 333.373 146.114" stroke="#263238" stroke-width="1.31836" stroke-linecap="round" stroke-linejoin="round"/>
<path d="M329.273 147.71C329.273 147.71 333.149 151.362 339.754 148.396" stroke="#263238" stroke-width="1.31836" stroke-linecap="round" stroke-linejoin="round"/>
<path d="M339.069 138.15C339.069 138.15 343.749 136.094 346.359 139.732" stroke="#263238" stroke-width="1.97754" stroke-linecap="round" stroke-linejoin="round"/>
<path d="M329.959 137.689C329.959 137.689 326.307 135.408 323.578 137.228" stroke="#263238" stroke-width="1.97754" stroke-linecap="round" stroke-linejoin="round"/>
<path d="M332.648 136.833C332.651 138.106 332.276 139.351 331.57 140.41C330.865 141.47 329.861 142.297 328.686 142.786C327.51 143.275 326.216 143.404 324.968 143.157C323.719 142.911 322.571 142.299 321.67 141.4C320.769 140.5 320.155 139.354 319.906 138.106C319.656 136.857 319.783 135.563 320.269 134.387C320.756 133.21 321.581 132.205 322.639 131.497C323.697 130.79 324.942 130.412 326.215 130.412C327.919 130.412 329.553 131.088 330.759 132.292C331.965 133.495 332.645 135.129 332.648 136.833Z" stroke="#263238" stroke-width="1.31836" stroke-linecap="round" stroke-linejoin="round"/>
<path d="M348.653 138.639C348.656 139.912 348.281 141.157 347.575 142.217C346.87 143.277 345.866 144.103 344.691 144.592C343.515 145.081 342.221 145.211 340.972 144.964C339.724 144.717 338.576 144.105 337.675 143.206C336.774 142.307 336.16 141.161 335.91 139.912C335.661 138.664 335.788 137.37 336.274 136.193C336.761 135.017 337.585 134.011 338.644 133.304C339.702 132.596 340.946 132.219 342.219 132.219C343.923 132.219 345.558 132.895 346.764 134.098C347.97 135.302 348.65 136.935 348.653 138.639Z" stroke="#263238" stroke-width="1.31836" stroke-linecap="round" stroke-linejoin="round"/>
<path d="M332.648 136.833C333.109 136.681 333.601 136.653 334.076 136.753C334.55 136.853 334.99 137.076 335.351 137.399" stroke="#263238" stroke-width="1.31836" stroke-linecap="round" stroke-linejoin="round"/>
<path d="M348.877 139.654L355.192 138.758" stroke="#263238" stroke-width="1.31836" stroke-linecap="round" stroke-linejoin="round"/>
<path d="M81.0394 445.752C79.2849 449.47 77.1227 452.981 74.5926 456.22C70.7958 460.887 69.8202 464.236 73.9598 467.123C76.3946 468.623 79.2782 469.221 82.1086 468.814C84.939 468.407 87.5371 467.02 89.4506 464.895C93.2474 460.228 99.3646 447.308 99.3646 447.308C99.3646 447.308 86.0492 443.3 81.0394 445.752Z" fill="white" stroke="#263238" stroke-width="1.31836" stroke-linecap="round" stroke-linejoin="round"/>
<path d="M127.472 448.653C127.472 448.653 134.064 457.327 138.019 461.836C141.974 466.345 149.436 468.507 153.431 468.296C157.425 468.085 163.16 466.727 159.284 459.608C155.408 452.489 147.327 445.581 147.327 445.581C147.327 445.581 138.863 445.581 133.049 444.908C127.235 444.236 127.195 447.308 127.472 448.653Z" fill="white" stroke="#263238" stroke-width="1.31836" stroke-linecap="round" stroke-linejoin="round"/>
<path d="M84.6913 285.017C84.6913 285.017 82.0546 315.339 82.9379 336.657C83.8212 357.975 79.9452 400.558 78.6268 411.026C77.3085 421.494 79.8397 438.632 79.9452 442.416C80.0507 446.2 80.2089 448.204 80.2089 448.204C80.2089 448.204 82.1469 446.885 89.3319 448.204C92.5758 448.896 95.8683 449.337 99.1801 449.522C102.151 444.509 104.607 439.209 106.51 433.702C108.646 426.582 107.433 419.2 107.262 415.442C107.09 411.685 106.484 407.651 106.892 406.992C107.301 406.332 116.121 342.642 116.596 328.615C117.094 319.087 118.471 309.625 120.709 300.349C120.709 300.349 124.901 319.94 125.231 327.508C125.56 335.075 124.479 396.748 125.033 409.246C125.587 421.744 124.611 425.066 123.187 428.165C121.764 431.263 122.278 432.845 123.28 435.284C124.282 437.723 127.419 448.652 127.419 448.652C127.419 448.652 143.49 449.535 145.665 448.428C147.841 447.32 148.685 446.2 148.658 445.527C148.632 444.855 156.384 428.837 155.645 422.153C154.907 415.469 154.063 416.589 153.325 404.566C152.587 392.542 157.491 291.187 157.478 285.913C157.465 280.64 156.581 290.818 123.794 284.595C91.0062 278.372 85.6141 280.785 84.6913 285.017Z" fill="#9AA846" stroke="#263238" stroke-width="1.31836" stroke-linecap="round" stroke-linejoin="round"/>
<path d="M128.435 439.966C128.435 439.966 138.731 431.054 147.313 428.839L128.435 439.966Z" fill="white"/>
<path d="M128.435 439.966C128.435 439.966 138.731 431.054 147.313 428.839" stroke="#263238" stroke-width="1.31836" stroke-linecap="round" stroke-linejoin="round"/>
<path d="M86.392 435.733C86.392 435.733 99.246 429.497 102.964 427.941L86.392 435.733Z" fill="white"/>
<path d="M86.392 435.733C86.392 435.733 99.246 429.497 102.964 427.941" stroke="#263238" stroke-width="1.31836" stroke-linecap="round" stroke-linejoin="round"/>
<path d="M107.974 120.262C107.974 120.262 104.52 112.471 101.962 115.2C99.4043 117.929 101.342 121.436 104.875 125.654C108.409 129.873 111.177 127.223 110.426 125.444C109.674 123.664 107.974 120.262 107.974 120.262Z" fill="white" stroke="#263238" stroke-width="1.31836" stroke-linecap="round" stroke-linejoin="round"/>
<path d="M141.407 116.029C141.407 116.029 144.861 108.461 147.696 112.074C150.53 115.686 144.453 124.545 142.963 126.101C141.473 127.657 140.511 115.857 140.511 115.857L141.407 116.029Z" fill="white" stroke="#263238" stroke-width="1.31836" stroke-linecap="round" stroke-linejoin="round"/>
<path d="M66.4189 213.549C66.4189 213.549 65.4696 227.352 64.2831 230.912C61.9005 239.308 60.7808 248.012 60.9609 256.738C61.4223 267.206 65.5356 289.908 65.6147 296.816C65.6938 303.725 63.5317 305.267 65.8388 307.047C68.1459 308.827 73.0502 314.179 74.83 314.179C76.6098 314.179 79.3256 315.063 79.2729 313.731C79.2201 312.399 78.3237 312.624 77.5854 310.831C76.6157 308.221 75.8273 305.547 75.2255 302.828C75.7689 300.857 76.4293 298.92 77.2031 297.027C77.2031 297.027 78.7851 302.604 79.0751 304.384C79.3652 306.164 81.8569 306.823 81.7118 303.487C81.5668 300.152 81.5141 298.82 81.3559 295.248C81.1977 291.675 78.3896 288.577 77.2031 286.797C76.0165 285.017 75.0673 283.897 75.0409 283.224C75.0146 282.552 78.8774 258.966 78.996 250.727C79.1147 242.487 79.2333 235.816 79.8398 234.247C80.4462 232.678 83.3862 218.664 83.3862 218.664L66.4189 213.549Z" fill="white" stroke="#263238" stroke-width="1.31836" stroke-linecap="round" stroke-linejoin="round"/>
<path d="M176.541 214.207C176.541 214.207 177.491 228.089 178.664 231.754C181.016 240.255 182.118 249.053 181.933 257.871C181.472 268.299 177.359 290.646 177.28 297.541C177.201 304.436 179.349 306.176 177.042 307.758C174.735 309.34 169.831 314.257 168.051 314.099C166.271 313.941 163.556 314.587 163.608 313.255C163.661 311.924 164.557 312.227 165.296 310.513C166.27 307.972 167.058 305.364 167.656 302.709C167.114 300.687 166.458 298.697 165.691 296.75C165.691 296.75 164.109 302.168 163.806 303.921C163.503 305.675 161.024 306.136 161.169 302.801C161.314 299.465 161.38 298.147 161.538 294.601C161.697 291.054 164.505 288.18 165.691 286.506C166.878 284.832 167.827 283.803 167.853 283.131C167.88 282.459 164.03 258.53 163.898 250.291C163.766 242.051 163.661 235.354 163.068 233.732C162.474 232.11 159.521 217.912 159.521 217.912L176.541 214.207Z" fill="white" stroke="#263238" stroke-width="1.31836" stroke-linecap="round" stroke-linejoin="round"/>
<path d="M115.106 145.863C115.106 145.863 102.463 151.875 94.8162 155.21C87.1697 158.546 77.5457 162.567 77.6116 164.122C77.6775 165.678 69.4773 196.844 66.8669 203.304C64.2566 209.764 61.8044 214.879 61.8044 214.879C61.8044 214.879 71.2044 221.115 77.2688 222.447C81.176 223.281 85.1438 223.802 89.1341 224.002L81.9226 288.127C81.9226 288.127 96.4246 293.915 119.14 294.139C133.234 294.243 147.322 293.499 161.327 291.911C161.327 291.911 163.463 239.177 163.239 234.022C163.084 231.202 163.186 228.373 163.542 225.571C167.004 226.317 170.599 226.163 173.984 225.123C176.963 224.018 179.88 222.755 182.724 221.339C182.724 221.339 171.663 177.253 169.844 171.242C168.025 165.23 168.882 164.347 167.286 163.674C165.691 163.002 148.223 155.434 142.514 152.099C136.806 148.764 134.604 148.764 129.608 147.195C124.611 145.626 117.677 143.635 115.106 145.863Z" fill="#9AA846" stroke="#263238" stroke-width="1.31836" stroke-linecap="round" stroke-linejoin="round"/>
<path d="M163.569 225.572L160.761 186.021" stroke="#263238" stroke-width="1.31836" stroke-linecap="round" stroke-linejoin="round"/>
<path d="M89.6484 246.27L114.328 245.61C114.328 245.61 113.234 276.552 112.496 279.888C111.757 283.223 106.787 285.451 100.288 285.267C93.7881 285.082 89.8989 281.931 89.1606 280.376" stroke="#263238" stroke-width="1.31836" stroke-linecap="round" stroke-linejoin="round"/>
<path d="M88.2903 250.278L114.328 250.054" stroke="#263238" stroke-width="1.31836" stroke-linecap="round" stroke-linejoin="round"/>
<path d="M156.885 285.268C154.459 285.94 148.671 285.94 147.406 282.38C146.14 278.821 146.971 246.982 146.971 246.982L159.68 247.431" stroke="#263238" stroke-width="1.31836" stroke-linecap="round" stroke-linejoin="round"/>
<path d="M146.812 249.619L158.915 251.399" stroke="#263238" stroke-width="1.31836" stroke-linecap="round" stroke-linejoin="round"/>
<path d="M89.1473 224.003C89.1473 224.003 90.0306 193.51 89.6879 185.494" stroke="#263238" stroke-width="1.31836" stroke-linecap="round" stroke-linejoin="round"/>
<path d="M111.335 131.019C111.335 131.019 113.26 149.476 113.352 151.493C113.445 153.51 115.686 159.06 117.808 161.96C119.931 164.861 125.916 174.208 128.355 172.428C130.794 170.648 137.413 160.563 138.059 155.065C138.704 149.568 139.021 136.358 139.021 136.358C139.021 136.358 130.359 136.806 123.807 134.578C117.255 132.35 111.335 131.019 111.335 131.019Z" fill="white" stroke="#263238" stroke-width="1.31836" stroke-linecap="round" stroke-linejoin="round"/>
<path d="M102.12 103.334L107.024 118.917C107.024 118.917 108.87 130.492 112.192 135.173C115.515 139.853 127.156 146.524 132.442 145.179C137.729 143.834 143.965 138.93 143.701 133.656C143.438 128.383 142.383 112.734 142.515 106.722C142.647 100.711 141.275 88.463 137.571 85.1275C133.866 81.7921 121.751 79.8541 112.997 83.3478C104.243 86.8414 98.3496 93.5519 102.12 103.334Z" fill="#263238" stroke="#263238" stroke-width="1.31836" stroke-linecap="round" stroke-linejoin="round"/>
<path d="M107.314 120.262C107.314 120.262 106.879 120.487 108.013 116.03C109.147 111.574 112.614 109.36 112.97 107.132C113.326 104.904 108.606 104.231 109.134 100.896C109.661 97.5603 114.223 95.1081 123.926 93.9875C133.629 92.8669 140.168 98.6677 139.851 101.568C139.535 104.468 138.652 104.904 140.076 106.842C141.499 108.78 142.119 112.629 142.211 114.857C142.304 117.085 143.53 125.101 141.433 127.54C139.337 129.979 137.729 129.544 135.646 127.54C133.563 125.536 132.772 122.873 128.092 122.873C123.412 122.873 121.935 124.653 121.118 126.432C120.3 128.212 119.522 130.387 116.846 130.387C114.17 130.387 112.285 127.935 110.386 125.272C109.248 123.675 108.222 122.001 107.314 120.262Z" fill="white" stroke="#263238" stroke-width="1.31836" stroke-linecap="round" stroke-linejoin="round"/>
<path d="M127.314 109.359C127.314 109.359 131.625 121.383 131.44 122.266C131.256 123.149 129.146 125.826 126.694 125.602C124.242 125.377 122.99 122.49 122.99 122.49" stroke="#263238" stroke-width="1.31836" stroke-linecap="round" stroke-linejoin="round"/>
<path d="M128.579 107.789C128.462 107.387 128.436 106.963 128.505 106.549C128.574 106.135 128.736 105.743 128.978 105.401C129.22 105.058 129.537 104.775 129.904 104.572C130.271 104.369 130.679 104.252 131.098 104.229C132.477 104.162 133.855 104.386 135.143 104.886C136.431 105.385 137.599 106.15 138.573 107.13" stroke="#263238" stroke-width="2.63672" stroke-linecap="round" stroke-linejoin="round"/>
<path d="M122.067 106.459C121.432 105.983 120.698 105.656 119.92 105.503C119.142 105.35 118.339 105.375 117.571 105.575C114.934 106.234 111.77 110.242 111.797 110.849" stroke="#263238" stroke-width="2.63672" stroke-linecap="round" stroke-linejoin="round"/>
<path d="M121.289 112.918C121.289 114.025 120.828 114.922 120.155 114.922C119.483 114.922 118.837 114.025 118.837 112.918C118.837 111.811 119.298 110.914 119.971 110.914C120.643 110.914 121.183 111.811 121.289 112.918Z" fill="#263238"/>
<path d="M134.117 112.246C134.117 113.354 133.655 114.25 132.983 114.25C132.31 114.25 131.664 113.354 131.664 112.246C131.664 111.139 132.126 110.242 132.811 110.242C133.497 110.242 134.064 111.139 134.117 112.246Z" fill="#263238"/>
<path d="M122.673 130.506C122.673 130.506 126.984 132.51 133.537 129.609" stroke="white" stroke-width="2.63672" stroke-linecap="round" stroke-linejoin="round"/>
<path d="M106.787 149.87C106.787 149.87 113.379 172.585 120.458 187.496C127.538 202.407 133.154 212.875 133.154 212.875C133.154 212.875 143.833 177.028 143.701 165.414C143.569 153.799 143.582 152.507 143.582 152.507" stroke="#263238" stroke-width="1.31836" stroke-linecap="round" stroke-linejoin="round"/>
<path d="M141.078 235.591H127.498L126.496 212.876H140.076L141.078 235.591Z" fill="white" stroke="#263238" stroke-width="1.31836" stroke-linecap="round" stroke-linejoin="round"/>
<path d="M240.93 455.548C240.93 455.548 248.049 461.336 253.178 462.891C258.306 464.447 260.969 465.343 259.849 467.796C258.728 470.248 255.182 471.131 244.714 471.355C234.246 471.579 232.242 469.351 228.235 468.244C224.227 467.136 218.663 468.244 216.883 466.016C215.104 463.788 215.776 460.452 215.776 456.88C215.776 453.307 231.135 451.764 235.143 453.096C237.152 453.71 239.091 454.532 240.93 455.548Z" fill="white" stroke="#263238" stroke-width="1.31836" stroke-linecap="round" stroke-linejoin="round"/>
<path d="M220.667 460.003C220.667 460.003 227.351 467.122 232.915 470.247C238.478 473.371 241.603 475.586 240.258 477.142C238.913 478.697 234.694 480.701 223.568 479.594C212.441 478.486 210.213 476.034 204.86 472.25C199.507 468.467 197.068 468.902 195.289 466.898C193.509 464.894 193.509 460.451 193.509 460.451L220.667 460.003Z" fill="white" stroke="#263238" stroke-width="1.31836" stroke-linecap="round" stroke-linejoin="round"/>
<path d="M254.061 295.249C254.061 295.249 250.106 348.234 248.498 357.818C246.889 367.403 245.386 372.729 245.61 379.413C245.834 386.097 247.852 405.239 243.896 416.591C239.941 427.942 239.941 441.745 240.324 445.753C240.706 449.761 242.103 455.1 241.893 455.996C241.682 456.893 235.208 460.452 230.528 461.336C227.592 461.884 224.616 462.184 221.629 462.232C217.094 463.825 212.385 464.87 207.602 465.344C200.918 465.792 191.782 463.788 191.782 463.788C191.782 463.788 191.782 447.308 190.885 436.63C189.989 425.951 186.93 408.799 190.674 395.879C194.418 382.959 193.561 376.104 193.311 371.845C193.06 367.587 193.311 348.458 193.087 347.799C192.863 347.139 191.531 291.465 191.531 291.465C191.531 291.465 215.802 295.025 232.058 293.469C248.313 291.913 252.505 291.861 252.505 291.861C252.505 291.861 256.065 287.905 254.061 295.249Z" fill="#263238" stroke="#263238" stroke-width="1.31836" stroke-linecap="round" stroke-linejoin="round"/>
<path d="M222.671 459.107C222.659 455.507 222.216 451.922 221.352 448.428C220.034 443.972 219.797 428.165 220.456 421.705C221.115 415.245 224.411 399.002 224.411 389.866C224.411 380.73 225.307 366.716 225.307 366.716" stroke="white" stroke-width="1.31836" stroke-linecap="round" stroke-linejoin="round"/>
<path d="M268.761 361.827L243.383 361.603C242.262 361.603 242.262 344.675 242.262 344.675L268.761 361.827Z" fill="white" stroke="#263238" stroke-width="1.31836" stroke-linecap="round" stroke-linejoin="round"/>
<path d="M215.103 298.374C215.103 298.374 240.482 299.93 254.733 297.478L249.829 177.704C249.829 177.704 246.494 172.141 237.595 169.016C228.696 165.892 218.004 170.335 214.22 174.593C210.436 178.851 213.1 297.926 213.1 297.926L215.103 298.374Z" fill="#9AA846" stroke="#263238" stroke-width="1.31836" stroke-linecap="round" stroke-linejoin="round"/>
<path d="M216.211 169.015C216.211 169.015 191.044 181.711 187.207 183.939C183.371 186.167 183.252 194.183 183.252 197.967C183.252 201.75 184.373 370.276 184.373 370.276C193.89 370.906 203.445 369.93 212.638 367.389C221.714 365.015 230.256 360.934 237.806 355.366L233.574 264.755L228.894 185.271C228.894 185.271 226.02 163.228 216.211 169.015Z" fill="white" stroke="#263238" stroke-width="1.31836" stroke-linecap="round" stroke-linejoin="round"/>
<path d="M223.792 160.788C223.792 160.788 218.004 161.447 215.552 164.743C214.107 166.672 213.047 168.861 212.427 171.19L210.213 191.229L217.78 189.449L213.996 198.348C213.996 198.348 217.78 209.488 222.012 218.835C226.244 228.183 232.466 247.338 232.466 247.338L229.579 187.445C229.579 187.445 229.579 170.083 228.261 166.352C226.943 162.621 225.571 160.788 223.792 160.788Z" fill="white" stroke="#263238" stroke-width="1.31836" stroke-linecap="round" stroke-linejoin="round"/>
<path d="M238.254 173.023L242.71 354.469L268.761 361.826L264.99 223.569C264.99 223.569 265.649 187.973 263.435 183.043C261.22 178.112 241.167 168.132 239.164 168.356C237.16 168.58 238.254 173.023 238.254 173.023Z" fill="white" stroke="#263238" stroke-width="1.31836" stroke-linecap="round" stroke-linejoin="round"/>
<path d="M238.254 163.899C239.877 164.294 241.395 165.035 242.704 166.073C244.013 167.111 245.081 168.42 245.834 169.911C248.049 174.802 253.837 189.95 253.837 189.95L246.494 190.834L254.285 196.41L240.482 248.274L238.926 192.178L237.608 169.015C237.608 169.015 235.986 165.297 238.254 163.899Z" fill="white" stroke="#263238" stroke-width="1.31836" stroke-linecap="round" stroke-linejoin="round"/>
<path d="M222.012 153.207C222.012 153.207 222.895 159.667 221.563 163.227C220.232 166.786 225.795 177.926 228.023 184.821C230.251 191.716 232.466 197.293 233.811 196.621C235.156 195.948 239.823 169.911 239.599 166.575C239.375 163.24 241.603 153.207 241.603 153.207C241.603 153.207 229.395 156.78 222.012 153.207Z" fill="white" stroke="#263238" stroke-width="1.31836" stroke-linecap="round" stroke-linejoin="round"/>
<path d="M206.376 146.42C213.388 146.42 219.072 140.482 219.072 133.157C219.072 125.832 213.388 119.895 206.376 119.895C199.364 119.895 193.68 125.832 193.68 133.157C193.68 140.482 199.364 146.42 206.376 146.42Z" fill="#263238" stroke="#263238" stroke-width="1.31836" stroke-linecap="round" stroke-linejoin="round"/>
<path d="M212.876 139.352C212.876 139.352 210.648 133.565 207.984 135.793C205.321 138.021 207.984 142.925 209.988 145.812C211.992 148.699 215.776 147.368 215.328 144.494C214.968 142.597 214.123 140.826 212.876 139.352Z" fill="white" stroke="#263238" stroke-width="1.31836" stroke-linecap="round" stroke-linejoin="round"/>
<path d="M247.39 135.793C247.39 135.793 248.498 130.23 250.027 134.014C250.7 135.495 251.011 137.115 250.936 138.74C250.86 140.365 250.4 141.949 249.592 143.361C248.274 145.589 248.471 145.365 248.023 143.361C247.678 140.851 247.466 138.325 247.39 135.793Z" fill="white" stroke="#263238" stroke-width="1.31836" stroke-linecap="round" stroke-linejoin="round"/>
<path d="M209.764 128.674C209.764 128.674 213.996 149.148 216.659 154.052C219.322 158.957 228.234 167.236 236.25 163.848C244.266 160.46 248.722 154.277 248.722 146.709C248.722 139.142 249.829 129.57 248.498 121.331C247.835 117.569 245.903 114.147 243.025 111.636C240.146 109.124 236.495 107.674 232.677 107.527C225.558 107.303 214.418 111.311 212.203 118.43C211.048 121.754 210.231 125.186 209.764 128.674Z" fill="white" stroke="#263238" stroke-width="1.31836" stroke-linecap="round" stroke-linejoin="round"/>
<path d="M209.989 136.293C209.989 136.293 222.447 131.402 230.463 125.391C238.478 119.379 240.93 114.923 240.93 114.923C240.93 114.923 244.714 125.166 246.27 128.502C247.825 131.837 249.17 135.621 249.17 135.621C249.17 135.621 251.622 131.402 251.622 122.437C251.622 113.473 249.17 106.406 239.757 101.739C230.344 97.0721 215.038 99.9462 208.116 106.63C201.195 113.314 202.54 124.217 204.333 128.449C205.726 131.386 207.642 134.044 209.989 136.293Z" fill="#263238" stroke="#263238" stroke-width="1.31836" stroke-linecap="round" stroke-linejoin="round"/>
<path d="M237.595 128C237.595 128 236.276 128.224 236.276 132.232C236.276 136.24 237.595 142.924 237.397 143.807C237.199 144.69 234.76 147.367 233.165 145.811" stroke="#263238" stroke-width="1.31836" stroke-linecap="round" stroke-linejoin="round"/>
<path d="M227.575 149.819C227.575 149.819 233.363 152.271 240.759 147.815" stroke="#263238" stroke-width="1.31836" stroke-linecap="round" stroke-linejoin="round"/>
<path d="M238.478 127.552C238.478 127.552 243.172 125.759 246.27 128.449" stroke="#263238" stroke-width="1.31836" stroke-linecap="round" stroke-linejoin="round"/>
<path d="M230.713 128.448C228.675 127.843 226.523 127.729 224.433 128.117C222.343 128.504 220.375 129.381 218.689 130.676" stroke="#263238" stroke-width="1.31836" stroke-linecap="round" stroke-linejoin="round"/>
<path d="M227.575 134.975C227.575 136.293 227.022 137.414 226.349 137.414C225.677 137.414 225.123 136.319 225.123 134.975C225.123 133.63 225.677 132.522 226.349 132.522C227.022 132.522 227.575 133.551 227.575 134.975Z" fill="#263238"/>
<path d="M242.038 134.013C242.038 135.331 241.497 136.465 240.825 136.465C240.152 136.465 239.599 135.371 239.599 134.013C239.599 132.655 240.139 131.561 240.825 131.561C241.51 131.561 242.038 132.668 242.038 134.013Z" fill="#263238"/>
<path d="M256.289 224.228C256.289 224.228 253.402 219.561 252.334 217.781C251.266 216.001 246.098 216.66 243.659 216.66C242.384 216.789 241.156 217.214 240.074 217.9C238.991 218.587 238.084 219.517 237.424 220.615C236.527 222.395 232.519 225.296 234.075 227.075C235.631 228.855 239.876 227.748 240.535 228.183C241.194 228.618 246.771 232.415 248.775 233.087C249.839 233.486 250.979 233.639 252.11 233.535L256.289 224.228Z" stroke="#263238" stroke-width="1.31836" stroke-linecap="round" stroke-linejoin="round"/>
<path d="M262.354 181.71C264.595 182.743 266.601 184.225 268.248 186.064C269.894 187.903 271.145 190.06 271.925 192.402C274.377 200.193 282.617 252.058 280.837 257.002C279.057 261.945 274.601 265.676 266.81 263.013C259.018 260.35 247.034 247.654 247.034 247.654L256.381 224.267L263.725 228.05L262.169 207.128" fill="white"/>
<path d="M262.354 181.71C264.595 182.743 266.601 184.225 268.248 186.064C269.894 187.903 271.145 190.06 271.925 192.402C274.377 200.193 282.617 252.058 280.837 257.002C279.057 261.945 274.601 265.676 266.81 263.013C259.018 260.35 247.034 247.654 247.034 247.654L256.381 224.267L263.725 228.05L262.169 207.128" stroke="#263238" stroke-width="1.31836" stroke-linecap="round" stroke-linejoin="round"/>
<path d="M263.672 228.012C263.672 228.012 275.471 234.92 276.592 237.372" stroke="#263238" stroke-width="1.31836" stroke-linecap="round" stroke-linejoin="round"/>
<path d="M248.722 196.844H205.756V256.961H248.722V196.844Z" fill="#263238" stroke="#263238" stroke-width="1.31836" stroke-linecap="round" stroke-linejoin="round"/>
<path d="M225.123 238.703C225.123 238.703 233.363 234.247 235.815 231.808C238.267 229.369 238.702 229.172 240.034 229.172C243.31 229.171 246.583 228.947 249.829 228.499C251.147 228.051 250.501 231.136 249.829 231.848C249.157 232.56 244.938 233.404 244.938 233.404C244.938 233.404 252.057 232.731 252.281 234.959C252.438 235.597 252.417 236.266 252.222 236.893C252.027 237.52 251.665 238.082 251.174 238.519L250.488 239.125C250.488 239.125 251.161 243.792 250.488 246.02C249.816 248.248 248.484 248.921 245.597 249.369C241.721 249.606 237.831 249.38 234.009 248.697C231.794 248.248 224.213 249.804 224.213 249.804L225.123 238.703Z" fill="white" stroke="#263238" stroke-width="1.31836" stroke-linecap="round" stroke-linejoin="round"/>
<path d="M195.513 179.933C195.513 179.933 182.329 182.82 180.154 184.165C177.979 185.509 170.583 238.481 169.014 247.446C167.445 256.411 182.817 258.125 187.471 259.904C192.125 261.684 226.204 264.36 226.204 264.36L226.652 236.754L203.027 230.689L202.803 192.615" fill="white"/>
<path d="M195.513 179.933C195.513 179.933 182.329 182.82 180.154 184.165C177.979 185.509 170.583 238.481 169.014 247.446C167.445 256.411 182.817 258.125 187.471 259.904C192.125 261.684 226.204 264.36 226.204 264.36L226.652 236.754L203.027 230.689L202.803 192.615" stroke="#263238" stroke-width="1.31836" stroke-linecap="round" stroke-linejoin="round"/>
<path d="M203.027 230.687C203.027 230.687 194.788 226.904 189.448 228.908C184.109 230.912 179.653 241.155 179.653 241.155" stroke="#263238" stroke-width="1.31836" stroke-linecap="round" stroke-linejoin="round"/>
<path d="M193.957 228.01C193.957 228.01 186.166 227.575 182.382 229.131C180.053 230.117 177.992 231.645 176.37 233.587" stroke="#263238" stroke-width="1.31836" stroke-linecap="round" stroke-linejoin="round"/>
<path d="M236.25 194.843H221.115V199.747H236.25V194.843Z" fill="white" stroke="#263238" stroke-width="1.31836" stroke-linecap="round" stroke-linejoin="round"/>
</g>
<defs>
<clipPath id="clip0_1309_25448">
<rect width="560" height="506.527" fill="white" transform="translate(0 0.5)"/>
</clipPath>
</defs>
</svg>
