<svg width="80" height="81" viewBox="0 0 80 81" fill="none" xmlns="http://www.w3.org/2000/svg">
<circle cx="40" cy="41.5" r="30" fill="#A6B742" fill-opacity="0.1"/>
<circle cx="40" cy="41.5" r="30" fill="#A6B742" fill-opacity="0.1"/>
<circle cx="40" cy="40.9082" r="40" fill="#A6B742" fill-opacity="0.1"/>
<path d="M56.9706 27.9215C56.441 27.391 55.5817 27.3901 55.0522 27.9193L38.7753 44.1532L32.9027 37.7749C32.3952 37.2241 31.5373 37.1884 30.9855 37.6957C30.4342 38.2032 30.3989 39.0616 30.9063 39.6129L37.7355 47.0295C37.8592 47.164 38.0089 47.272 38.1754 47.3472C38.342 47.4224 38.522 47.4631 38.7047 47.4669C38.7146 47.4673 38.7242 47.4673 38.7337 47.4673C39.0927 47.4672 39.4371 47.3249 39.6915 47.0716L56.968 29.8404C57.4989 29.3113 57.4998 28.452 56.9706 27.9215Z" fill="#A6B742"/>
<path d="M56.6432 39.6432C55.8938 39.6432 55.2864 40.2505 55.2864 41C55.2864 49.4293 48.4293 56.2864 40 56.2864C31.5712 56.2864 24.7136 49.4293 24.7136 41C24.7136 32.5712 31.5712 25.7136 40 25.7136C40.7494 25.7136 41.3568 25.1062 41.3568 24.3568C41.3568 23.6074 40.7494 23 40 23C30.0747 23 22 31.0747 22 41C22 50.9249 30.0747 59 40 59C49.9249 59 58 50.9249 58 41C58 40.2506 57.3926 39.6432 56.6432 39.6432Z" fill="#A6B742"/>
</svg>
