<svg width="560" height="510" viewBox="0 0 560 510" fill="none" xmlns="http://www.w3.org/2000/svg">
<g clip-path="url(#clip0_1836_32829)">
<path d="M546.94 302.031C530.968 350.451 496.578 403.511 445.904 420.742C369.377 446.846 362.542 509.607 223.662 509.176C203.386 509.212 183.166 507.041 163.36 502.7C153.69 500.559 144.167 497.807 134.845 494.463C52.5267 464.785 7.47649 394.206 1.04931 318.782C-7.41634 219.581 60.093 169.53 104.076 140.116C148.059 110.702 198.229 1.02059 334.771 0.361089C355.617 0.18668 376.414 2.40758 396.753 6.98013C443.11 17.6281 490.822 43.2889 519.469 82.4036C521.627 85.3374 523.693 88.3431 525.668 91.4208C564.315 151.556 568.728 236.02 546.94 302.031Z" fill="#9AA846"/>
<path opacity="0.7" d="M546.94 302.031C530.968 350.451 496.578 403.511 445.904 420.742C369.377 446.846 362.542 509.607 223.662 509.176C203.386 509.212 183.166 507.041 163.36 502.7C153.69 500.559 144.167 497.807 134.845 494.463C52.5267 464.785 7.47649 394.206 1.04931 318.782C-7.41634 219.581 60.093 169.53 104.076 140.116C148.059 110.702 198.229 1.02059 334.771 0.361089C355.617 0.18668 376.414 2.40758 396.753 6.98013C443.11 17.6281 490.822 43.2889 519.469 82.4036C521.627 85.3374 523.693 88.3431 525.668 91.4208C564.315 151.556 568.728 236.02 546.94 302.031Z" fill="white"/>
<path d="M0 461.199H554.176" stroke="#263238" stroke-width="1.1991" stroke-linecap="round" stroke-linejoin="round"/>
<path d="M388.761 452.23H392.838L392.838 70.2449H388.761L388.761 452.23Z" fill="white" stroke="#263238" stroke-width="1.1991" stroke-linecap="round" stroke-linejoin="round"/>
<path d="M367.896 454.736H414.05V452.086H367.896V454.736Z" fill="white" stroke="#263238" stroke-width="1.1991" stroke-linecap="round" stroke-linejoin="round"/>
<path d="M367.201 457.926C367.201 457.278 367.393 456.646 367.752 456.107C368.112 455.569 368.623 455.149 369.222 454.902C369.82 454.654 370.478 454.589 371.113 454.715C371.748 454.842 372.331 455.153 372.789 455.611C373.247 456.069 373.559 456.652 373.685 457.287C373.811 457.922 373.746 458.58 373.499 459.179C373.251 459.777 372.831 460.288 372.293 460.648C371.755 461.007 371.122 461.199 370.474 461.199C369.606 461.199 368.774 460.855 368.16 460.241C367.546 459.627 367.201 458.794 367.201 457.926Z" fill="#263238" stroke="#263238" stroke-width="1.1991" stroke-linecap="round" stroke-linejoin="round"/>
<path d="M411.22 461.199C413.028 461.199 414.493 459.734 414.493 457.926C414.493 456.118 413.028 454.652 411.22 454.652C409.412 454.652 407.946 456.118 407.946 457.926C407.946 459.734 409.412 461.199 411.22 461.199Z" fill="#263238" stroke="#263238" stroke-width="1.1991" stroke-linecap="round" stroke-linejoin="round"/>
<path d="M428.139 71.0586V72.0778C428.129 73.7825 427.446 75.4142 426.237 76.6162C425.028 77.8183 423.393 78.493 421.688 78.493H420.285C418.574 78.493 416.933 77.8133 415.723 76.6035C414.513 75.3937 413.834 73.7528 413.834 72.0419V71.0586H367.021V72.7493C367.021 74.4603 366.341 76.1012 365.131 77.311C363.922 78.5208 362.281 79.2005 360.57 79.2005C358.859 79.2005 357.218 78.5208 356.008 77.311C354.798 76.1012 354.119 74.4603 354.119 72.7493V71.7301" stroke="#263238" stroke-width="3.5973" stroke-linecap="round" stroke-linejoin="round"/>
<path d="M359.658 135.152V278.601" stroke="#263238" stroke-width="2.3982" stroke-linecap="round" stroke-linejoin="round"/>
<path d="M355.977 76.7192C356.822 75.924 357.934 75.4734 359.094 75.4556C360.254 75.4379 361.379 75.8543 362.248 76.6233L368.891 82.4629C372.045 85.2208 373.616 86.3959 373.616 86.3959H345.701L355.977 76.7192Z" fill="white" stroke="#263238" stroke-width="1.1991" stroke-linecap="round" stroke-linejoin="round"/>
<path d="M367.812 126.109H351.469C349.929 126.109 348.453 125.498 347.365 124.41C346.276 123.321 345.665 121.845 345.665 120.306V86.3951H373.616V120.306C373.616 121.845 373.005 123.321 371.916 124.41C370.828 125.498 369.352 126.109 367.812 126.109Z" fill="white" stroke="#263238" stroke-width="1.1991" stroke-linecap="round" stroke-linejoin="round"/>
<path d="M366.481 124.228H352.8C352.03 124.233 351.268 124.085 350.556 123.793C349.845 123.5 349.199 123.069 348.655 122.524C348.112 121.98 347.682 121.333 347.391 120.621C347.1 119.909 346.954 119.146 346.96 118.377V103.784H372.285V118.377C372.291 119.143 372.146 119.903 371.857 120.612C371.568 121.322 371.142 121.968 370.602 122.512C370.063 123.056 369.421 123.487 368.713 123.782C368.006 124.077 367.248 124.228 366.481 124.228Z" fill="#9AA846" stroke="#263238" stroke-width="1.1991" stroke-linecap="round" stroke-linejoin="round"/>
<path d="M357.86 134.898H361.421V126.241H357.86V134.898Z" fill="#9AA846" stroke="#263238" stroke-width="1.1991" stroke-linecap="round" stroke-linejoin="round"/>
<path d="M348.747 121.268H370.402V89.2756H348.747V121.268Z" fill="white" stroke="#263238" stroke-width="1.1991" stroke-linecap="round" stroke-linejoin="round"/>
<path d="M358.124 78.7354C356.937 78.2457 355.923 77.4142 355.209 76.3467C354.496 75.2792 354.117 74.0237 354.119 72.7399V71.7207" fill="white"/>
<path d="M358.124 78.7354C356.937 78.2457 355.923 77.4142 355.209 76.3467C354.496 75.2792 354.117 74.0237 354.119 72.7399V71.7207" stroke="#263238" stroke-width="3.5973" stroke-linecap="round" stroke-linejoin="round"/>
<path d="M67.1859 323.519C67.1899 323.495 67.1859 323.47 67.1744 323.449C67.163 323.428 67.1448 323.411 67.1227 323.402C67.1007 323.392 67.076 323.39 67.0527 323.396C67.0294 323.402 67.0087 323.415 66.994 323.435C63.9016 330.839 61.4582 338.498 59.6915 346.325C57.8986 354.148 56.5534 362.067 55.6625 370.044L55.087 376.039C55.003 377.046 54.8951 378.042 54.8232 379.037L54.6553 382.047C54.5713 384.061 54.4514 386.064 54.3915 388.042V394.038L54.4514 397.047C54.4514 398.055 54.5713 399.05 54.6433 400.057C54.7872 402.06 54.9071 404.062 55.0989 406.053C55.4827 410.046 56.0822 414.015 56.6938 417.972C56.7005 417.996 56.7143 418.019 56.7334 418.036C56.7526 418.053 56.7763 418.064 56.8017 418.068C56.8303 418.068 56.8577 418.056 56.878 418.036C56.8982 418.016 56.9096 417.988 56.9096 417.96C56.9096 415.957 56.8137 413.955 56.7657 411.964C56.7177 409.974 56.5379 407.971 56.5618 405.969C56.5858 403.966 56.5618 401.976 56.5618 399.973L56.5019 396.987V393.99V387.994L56.6578 381.999V379.013C56.6578 378.018 56.7777 377.022 56.8257 376.027L57.1974 370.032C57.8746 362.084 59.0035 354.181 60.5788 346.361C62.1207 338.571 64.3313 330.929 67.1859 323.519Z" fill="#263238"/>
<path d="M68.0372 354.742C68.0443 354.728 68.0481 354.712 68.0486 354.697C68.049 354.681 68.0459 354.665 68.0396 354.651C68.0333 354.636 68.0239 354.623 68.0121 354.613C68.0002 354.602 67.9863 354.595 67.9711 354.59C67.956 354.586 67.9401 354.585 67.9245 354.587C67.9089 354.59 67.894 354.595 67.8808 354.604C67.8677 354.613 67.8567 354.624 67.8485 354.638C67.8403 354.651 67.8351 354.666 67.8334 354.682C66.1423 359.665 64.7252 364.737 63.5886 369.875C62.46 375.019 61.6233 380.224 61.0825 385.463C60.5429 390.691 59.9673 395.919 59.8834 401.183C59.7497 406.442 59.9339 411.703 60.4349 416.939C60.4379 416.963 60.4493 416.984 60.467 417C60.4846 417.015 60.5074 417.024 60.5309 417.023C60.5578 417.027 60.585 417.02 60.6072 417.005C60.6295 416.989 60.645 416.966 60.6508 416.939C61.2503 411.699 61.6221 406.483 61.9818 401.267C62.3415 396.051 62.4015 390.823 62.7492 385.607C63.0758 380.4 63.6963 375.216 64.6078 370.079C65.4631 364.906 66.6081 359.786 68.0372 354.742Z" fill="#263238"/>
<path d="M85.3521 365.727C85.3421 365.716 85.33 365.708 85.3166 365.702C85.3032 365.696 85.2887 365.693 85.2742 365.693C85.2596 365.693 85.2452 365.696 85.2318 365.702C85.2184 365.708 85.2063 365.716 85.1962 365.727C80.87 368.509 76.972 371.906 73.6249 375.811C71.9446 377.779 70.4324 379.885 69.1043 382.106L68.169 383.857L67.4376 385.68C67.1858 386.291 66.9939 386.879 66.802 387.538C66.6102 388.198 66.4063 388.737 66.2385 389.397C64.9111 394.392 64.1074 399.512 63.8403 404.673C63.576 409.805 63.7686 414.949 64.4158 420.046C64.4184 420.07 64.4294 420.093 64.4468 420.111C64.4643 420.128 64.4872 420.139 64.5118 420.142C64.5253 420.144 64.5391 420.142 64.5522 420.138C64.5652 420.134 64.5773 420.127 64.5875 420.118C64.5977 420.109 64.6059 420.098 64.6114 420.086C64.617 420.073 64.6198 420.06 64.6197 420.046L65.9387 404.817C66.3028 399.781 66.9473 394.769 67.8692 389.805C68.0131 389.193 68.181 388.605 68.3369 387.994C68.4786 387.384 68.6588 386.783 68.8765 386.195L69.488 384.433L70.2914 382.778C71.4885 380.565 72.8725 378.459 74.4283 376.483C77.5201 372.447 81.184 368.884 85.3042 365.907C85.3223 365.901 85.3388 365.892 85.352 365.878C85.3653 365.865 85.3748 365.849 85.3796 365.83C85.3845 365.812 85.3845 365.793 85.3797 365.775C85.3748 365.757 85.3654 365.74 85.3521 365.727Z" fill="#263238"/>
<path d="M76.9705 385.283C74.7198 386.926 72.9113 389.102 71.7064 391.614C70.4337 394.081 69.4442 396.684 68.7566 399.373C68.5528 400.032 68.3849 400.704 68.241 401.375L67.7494 403.45C67.4975 404.809 67.3293 406.182 67.2458 407.562C67.2458 408.941 67.1858 410.32 67.2458 411.699C67.3422 413.08 67.5224 414.454 67.7854 415.812C67.7909 415.832 67.8015 415.851 67.8162 415.865C67.8309 415.88 67.8492 415.891 67.8693 415.896C67.8828 415.9 67.8968 415.9 67.9106 415.898C67.9243 415.895 67.9373 415.89 67.9487 415.882C67.9601 415.874 67.9696 415.864 67.9766 415.852C67.9836 415.84 67.9879 415.826 67.9892 415.812C68.3073 414.476 68.5515 413.123 68.7207 411.759C68.9365 410.428 69.1403 409.085 69.3082 407.754C69.4761 406.423 69.6799 405.104 69.7759 403.773C69.8718 402.442 70.0636 401.099 70.3514 399.792C70.8185 397.159 71.5745 394.586 72.6057 392.118C73.5348 389.599 75.0518 387.338 77.0304 385.523C77.0304 385.523 77.0304 385.439 77.0304 385.391C77.0312 385.369 77.026 385.348 77.0154 385.329C77.0048 385.31 76.9893 385.294 76.9705 385.283Z" fill="#263238"/>
<path d="M52.6888 400.536C52.1252 393.785 51.0101 387.094 49.9549 380.403C48.8997 373.712 47.7365 367.045 46.5134 360.39C45.2904 353.735 43.9234 347.092 42.4845 340.497C42.4787 340.471 42.4631 340.447 42.4409 340.432C42.4187 340.416 42.3914 340.409 42.3646 340.413C42.3507 340.414 42.3373 340.419 42.3252 340.426C42.3132 340.433 42.3028 340.442 42.2948 340.454C42.2868 340.465 42.2814 340.478 42.279 340.492C42.2765 340.505 42.2771 340.52 42.2806 340.533C43.4797 347.2 44.475 353.879 45.4702 360.57C46.4655 367.261 47.4368 373.94 48.2881 380.643C49.1395 387.346 49.751 394.061 50.5904 400.764L53.0605 420.873C53.0635 420.899 53.0762 420.924 53.0961 420.941C53.116 420.959 53.1418 420.969 53.1685 420.969C53.182 420.97 53.1958 420.969 53.2089 420.965C53.2219 420.961 53.234 420.954 53.2442 420.945C53.2544 420.936 53.2626 420.925 53.2681 420.912C53.2737 420.9 53.2765 420.886 53.2764 420.873C53.3483 419.17 53.3603 417.479 53.3963 415.777C53.4323 414.074 53.3603 412.395 53.3603 410.644C53.2404 407.299 52.9406 403.917 52.6888 400.536Z" fill="#263238"/>
<path d="M48.6359 400.441C48.2761 397.767 47.7845 395.105 47.2809 392.455L46.3216 388.51C46.0218 387.191 45.7221 385.872 45.3383 384.577C43.9899 379.335 42.2627 374.197 40.1702 369.205L39.3548 367.346L38.4555 365.523C37.8919 364.324 37.1964 363.125 36.5369 361.926C35.2097 359.568 33.5678 357.402 31.6566 355.487C31.6375 355.468 31.6116 355.457 31.5847 355.457C31.5577 355.457 31.5318 355.468 31.5127 355.487C31.4936 355.506 31.4829 355.532 31.4829 355.559C31.4829 355.586 31.4936 355.612 31.5127 355.631C33.288 357.628 34.7882 359.854 35.9734 362.25C36.5609 363.449 37.1725 364.648 37.6881 365.847L38.4795 367.682L39.187 369.564C41.057 374.572 42.5598 379.71 43.6836 384.937C44.2951 387.539 44.7028 390.189 45.2064 392.815L45.842 396.772C46.0698 398.091 46.3576 399.398 46.5374 400.717C46.9571 403.367 47.4488 405.993 47.9044 408.643C48.3601 411.293 48.8037 413.943 49.3673 416.593C49.3703 416.616 49.3817 416.638 49.3993 416.653C49.417 416.669 49.4398 416.677 49.4633 416.677C49.4919 416.677 49.5193 416.666 49.5396 416.645C49.5598 416.625 49.5712 416.598 49.5712 416.569C49.5712 413.875 49.5072 411.177 49.3793 408.475C49.2354 405.849 48.9237 403.127 48.6359 400.441Z" fill="#263238"/>
<path d="M43.0479 400.787C41.8488 397.19 40.3499 393.773 38.7671 390.367C37.1746 386.971 35.3766 383.676 33.3832 380.499C33.3624 380.483 33.3372 380.475 33.3112 380.475C33.2853 380.475 33.26 380.483 33.2393 380.499C33.2216 380.518 33.2118 380.544 33.2118 380.571C33.2118 380.597 33.2216 380.623 33.2393 380.643C34.9551 383.929 36.4687 387.316 37.7719 390.787C39.1508 394.24 40.3859 397.742 41.3692 401.315C42.3524 404.888 43.1798 408.51 44.1271 412.107C45.0744 415.704 45.9378 419.302 47.0289 422.899C47.0367 422.921 47.0514 422.94 47.0709 422.953C47.0903 422.966 47.1135 422.972 47.1369 422.971C47.1504 422.972 47.1642 422.971 47.1773 422.967C47.1903 422.963 47.2024 422.956 47.2126 422.947C47.2228 422.938 47.231 422.927 47.2365 422.915C47.2421 422.902 47.2449 422.889 47.2448 422.875C47.2842 419.099 46.9306 415.33 46.1896 411.627C45.4393 407.934 44.3886 404.309 43.0479 400.787Z" fill="#263238"/>
<path d="M42.82 412.598C42.1274 410.388 41.122 408.288 39.8343 406.363C38.6441 404.379 37.1876 402.567 35.5055 400.979C34.6519 400.209 33.7331 399.515 32.7596 398.904C31.7979 398.261 30.742 397.772 29.6299 397.453C29.6061 397.448 29.5813 397.452 29.5595 397.463C29.5378 397.473 29.5203 397.491 29.51 397.513C29.4932 397.531 29.4838 397.555 29.4838 397.579C29.4838 397.604 29.4932 397.628 29.51 397.645C31.5063 398.601 33.2762 399.97 34.7021 401.662C36.134 403.321 37.3433 405.159 38.2994 407.13C39.3187 409.073 39.8463 411.219 40.6976 413.222C41.0933 414.241 41.4771 415.284 41.8967 416.303C42.2802 417.371 42.7328 418.412 43.2517 419.421C43.2586 419.438 43.2701 419.453 43.2849 419.463C43.2998 419.474 43.3174 419.48 43.3357 419.481C43.3655 419.481 43.3943 419.47 43.4165 419.45C43.4387 419.43 43.4526 419.403 43.4556 419.373C43.4895 418.22 43.4454 417.066 43.3237 415.92C43.3237 414.84 43.0839 413.713 42.82 412.598Z" fill="#ABABAB"/>
<path d="M43.2279 350.176C39.8507 349.236 36.7955 347.389 34.394 344.836C31.9926 342.282 30.3366 339.119 29.6061 335.691C27.052 323.76 35.2778 328.88 27.9034 310.138C20.5289 291.396 22.1836 287.139 24.7737 281.743C27.3638 276.347 28.7547 278.05 31.021 285.149C33.2873 292.247 41.5251 303.315 44.6548 324.047C47.7844 344.78 43.2279 350.176 43.2279 350.176Z" fill="#9AA846"/>
<path d="M65.0994 330.005C65.0994 330.005 57.7129 327.451 57.4251 313.542C57.1373 299.632 62.8211 302.462 63.6724 285.147C64.5238 267.832 65.6629 255.613 68.7926 255.325C71.9222 255.037 80.1481 263.851 82.9899 283.156C85.8318 302.462 79.2967 315.244 73.613 320.928C67.9292 326.612 65.0994 330.005 65.0994 330.005Z" fill="#9AA846"/>
<path d="M39.2588 366.925C39.2588 366.925 37.5561 356.685 34.1746 351.889C30.7932 347.092 23.3827 342.799 18.5863 333.434C13.7899 324.069 8.31001 319.513 8.58581 332.847C8.8616 346.181 14.8331 353.004 22.2196 357.548C29.606 362.093 39.2588 366.925 39.2588 366.925Z" fill="#9AA846"/>
<path d="M36.1291 384.526C36.1291 384.526 29.3182 371.468 19.3417 361.815C9.3652 352.162 1.48711 347.33 4.32898 352.15C7.17085 356.971 10.5763 356.695 15.4087 365.221C20.241 373.746 18.8141 379.982 25.625 384.814C32.4359 389.646 36.1291 384.526 36.1291 384.526Z" fill="#9AA846"/>
<path d="M35.2778 401.279C35.0021 400.428 34.7143 394.18 25.0615 389.072C15.4087 383.964 6.31956 385.943 7.45871 388.509C8.59785 391.075 14.5574 395.319 20.5169 397.874C26.4764 400.428 35.2778 401.279 35.2778 401.279Z" fill="#9AA846"/>
<path d="M64.5237 367.477C64.5237 367.477 60.2669 362.081 62.5452 350.69C64.8235 339.298 69.9197 342.176 75.6034 336.205C81.2871 330.233 80.148 329.394 85.8197 323.147C91.4915 316.899 96.6117 313.494 98.8899 316.048C101.168 318.602 97.6908 326.552 94.3454 331.097C90.9999 335.641 85.544 337.908 82.9899 343.591C80.4358 349.275 81.5629 358.4 75.0398 362.681C68.5167 366.962 64.5237 367.477 64.5237 367.477Z" fill="#9AA846"/>
<path d="M78.7212 370.62C78.7212 370.62 88.9495 358.977 96.336 350.451C103.722 341.926 106.552 335.403 106.84 341.086C107.128 346.77 109.394 351.303 103.435 358.689C97.4751 366.076 78.7212 370.62 78.7212 370.62Z" fill="#9AA846"/>
<path d="M73.3373 389.36C73.3373 389.36 73.0495 384.815 89.2373 374.299C105.425 363.783 112.236 361.816 110.533 366.073C108.831 370.33 101.732 374.587 94.0577 382.261C86.3835 389.935 73.3373 389.36 73.3373 389.36Z" fill="#9AA846"/>
<path d="M43.9112 348.963C43.9112 348.963 40.1101 328.578 36.1291 314.105C32.148 299.632 29.606 290.818 29.606 290.818" stroke="#263238" stroke-width="1.1991" stroke-linecap="round" stroke-linejoin="round"/>
<path d="M64.4399 330.22C64.4399 330.22 71.3468 308.145 73.6131 294.799C75.8794 281.453 73.3373 271.548 72.1981 265.553" stroke="#263238" stroke-width="1.1991" stroke-linecap="round" stroke-linejoin="round"/>
<path d="M38.3594 366.496C35.304 361.239 31.806 356.253 27.9033 351.591C21.6559 344.204 16.8236 340.235 13.9817 333.137" stroke="#263238" stroke-width="1.1991" stroke-linecap="round" stroke-linejoin="round"/>
<path d="M64.5238 367.476C64.5238 367.476 66.8021 353.842 72.198 346.744C77.594 339.645 88.3859 328.577 92.6427 321.479" stroke="#263238" stroke-width="1.1991" stroke-linecap="round" stroke-linejoin="round"/>
<path d="M34.6182 400.966C34.6182 400.966 25.0254 394.743 18.2505 391.373" stroke="#263238" stroke-width="1.1991" stroke-linecap="round" stroke-linejoin="round"/>
<path d="M62.4014 461.199H49.9067C48.8232 461.2 47.7634 460.881 46.8609 460.282C45.9583 459.682 45.2533 458.829 44.8345 457.83C40.7576 448.045 29.8458 419.794 36.4408 411.784C42.7001 404.158 69.6559 404.158 75.9152 411.784C82.4743 419.794 71.5745 448.045 67.5215 457.83C67.101 458.838 66.3889 459.697 65.4766 460.297C64.5643 460.898 63.4934 461.212 62.4014 461.199Z" fill="#263238"/>
<path d="M278.995 440.025L283.503 444.977L297.893 454.438C298.43 455.564 298.736 456.788 298.792 458.035V459.234C298.792 459.768 298.58 460.281 298.202 460.659C297.824 461.036 297.312 461.249 296.778 461.249H255.744C255.569 461.25 255.399 461.188 255.267 461.073C255.134 460.958 255.048 460.799 255.025 460.625C254.572 457.848 254.304 455.044 254.221 452.231C254.221 448.634 256.476 436.919 256.476 436.919L277.64 436.02L278.995 440.025Z" fill="white" stroke="#263238" stroke-width="1.1991" stroke-linecap="round" stroke-linejoin="round"/>
<path d="M255.025 460.577C255.048 460.751 255.134 460.91 255.267 461.025C255.399 461.14 255.569 461.203 255.744 461.201H296.777C297.042 461.201 297.304 461.149 297.548 461.048C297.793 460.946 298.015 460.798 298.202 460.611C298.389 460.424 298.537 460.202 298.639 459.957C298.74 459.713 298.792 459.451 298.792 459.187V457.987C298.804 457.8 298.804 457.611 298.792 457.424H254.605C254.809 458.791 254.917 459.918 255.025 460.577Z" fill="white" stroke="#263238" stroke-width="1.1991" stroke-linecap="round" stroke-linejoin="round"/>
<path d="M210.55 436.548L209.843 442.22C209.843 442.22 202.924 455.877 202.396 457.292C202.105 458.579 202.105 459.915 202.396 461.202H232.721C232.721 461.202 233.921 454.103 232.362 450.206C230.803 446.309 231.247 439.786 231.247 439.786L230.419 436.548C230.419 436.548 214.987 434.629 210.55 436.548Z" fill="white" stroke="#263238" stroke-width="1.1991" stroke-linecap="round" stroke-linejoin="round"/>
<path d="M202.396 461.2H232.721C232.93 459.906 233.066 458.601 233.129 457.291H202.396C202.105 458.578 202.105 459.913 202.396 461.2Z" fill="white" stroke="#263238" stroke-width="1.1991" stroke-linecap="round" stroke-linejoin="round"/>
<path d="M285.302 274.259C285.302 274.259 279.45 366.146 280.35 382.814C281.249 399.481 278.995 440.023 278.995 440.023C275.649 440.584 272.338 441.337 269.078 442.277C266.836 443.177 255.48 444.088 255.48 444.088C254.859 440.203 254.439 436.289 254.221 432.361C254.262 428.145 254.562 423.937 255.121 419.758C255.576 417.048 247.926 300.388 247.926 300.388L243.417 302.642L231.702 434.627L231.247 443.644L217.733 441.822L208.955 443.764C208.955 443.764 207.372 431.461 207.828 428.763C208.284 426.065 210.526 413.043 210.526 413.043L206.473 273.852C206.473 273.852 264.582 276.514 285.302 274.259Z" fill="#9AA846" stroke="#263238" stroke-width="1.1991" stroke-linecap="round" stroke-linejoin="round"/>
<path d="M302.065 178.094L307.33 210.613L305.159 214.331L289.367 202.867L285.962 183.358L302.065 178.094Z" fill="white" stroke="#263238" stroke-width="1.1991" stroke-linecap="round" stroke-linejoin="round"/>
<path d="M287.46 187.614L302.569 184.916V181.402L289.055 183.968L287.46 187.614Z" fill="#263238" stroke="#263238" stroke-width="1.1991" stroke-linecap="round" stroke-linejoin="round"/>
<path d="M243.837 113.963C243.837 113.963 242.902 126.362 242.902 128.532C242.902 130.702 225.563 134.096 217.193 140.607C212.493 144.204 206.665 152.07 206.665 156.711C206.665 161.351 209.147 223.309 209.147 223.309L204.675 277.412C204.675 277.412 225.155 282.856 241.259 284.415C257.363 285.974 288.024 276.957 288.024 276.957C288.024 276.957 285.626 227.338 285.626 223.932C285.626 220.527 285.026 211.594 285.026 211.594L287.82 185.585L289.019 184.026L307.917 180.309C307.917 180.309 302.893 162.814 294.595 149.96C288.396 140.367 269.51 134.156 267.651 133.544L265.793 132.921L265.169 126.422C265.169 126.422 248.478 119.85 243.837 113.963Z" fill="#9AA846" stroke="#263238" stroke-width="1.1991" stroke-linecap="round" stroke-linejoin="round"/>
<path d="M265.829 132.861L265.205 126.362C265.205 126.362 248.478 119.85 243.837 113.963C243.837 113.963 242.902 126.362 242.902 128.532C242.902 129.371 240.228 130.415 236.475 131.77C240.372 137.285 250.168 151.099 253.13 154.552C255.955 158.138 258.443 161.975 260.565 166.016L271.716 134.935C269.642 134.144 268.119 133.652 267.687 133.496L265.829 132.861Z" fill="white" stroke="#263238" stroke-width="1.1991" stroke-linecap="round" stroke-linejoin="round"/>
<path d="M265.757 132.165L265.205 126.362C265.205 126.362 248.478 119.85 243.837 113.963C243.837 113.963 243.693 115.869 243.513 118.304C244.713 120.798 251.907 135.235 257.999 134.995C260.801 134.807 263.491 133.825 265.757 132.165Z" fill="#263238" stroke="#263238" stroke-width="1.1991" stroke-linecap="round" stroke-linejoin="round"/>
<path d="M282.856 190.168C282.856 190.168 302.689 205.349 305.783 207.819C308.876 210.289 308.565 214.33 306.406 218.047C304.248 221.764 294.007 225.793 290.602 222.999C287.197 220.205 279.45 205.013 278.527 203.178C277.604 201.344 274.498 193.262 274.498 193.262L282.856 190.168Z" fill="white" stroke="#263238" stroke-width="1.1991" stroke-linecap="round" stroke-linejoin="round"/>
<path d="M281.309 184.28C278.035 182.544 274.617 181.096 271.093 179.951C267.376 179.016 263.035 187.686 263.035 187.686L282.556 187.386L281.309 184.28Z" fill="white" stroke="#263238" stroke-width="1.1991" stroke-linecap="round" stroke-linejoin="round"/>
<path d="M252.818 183.968L237.638 220.516H272.328L287.82 183.668L252.818 183.968Z" fill="#263238" stroke="#263238" stroke-width="1.1991" stroke-linecap="round" stroke-linejoin="round"/>
<path d="M226.486 206.586C226.486 206.586 240.731 196.369 242.59 195.794C244.449 195.218 249.413 193.935 249.413 193.935L247.243 198.276L257.459 198.576C257.459 198.576 259.318 198.276 259.006 201.37C258.694 204.463 253.43 205.087 253.43 205.087C253.43 205.087 250.96 214.68 246.619 215.615C242.278 216.55 227.433 215.615 227.433 215.615C227.433 215.615 198.655 234.201 194.902 228.937C191.149 223.673 194.29 179.066 194.29 179.066L215.035 183.719L214.423 207.569L226.486 206.586Z" fill="white" stroke="#263238" stroke-width="1.1991" stroke-linecap="round" stroke-linejoin="round"/>
<path d="M194.098 185.18L214.867 188.417V186.798L194.362 181.139L194.098 185.18Z" fill="#263238" stroke="#263238" stroke-width="1.1991" stroke-linecap="round" stroke-linejoin="round"/>
<path d="M214.411 207.518L201.713 207.817" stroke="#263238" stroke-width="1.1991" stroke-linecap="round" stroke-linejoin="round"/>
<path d="M224.628 137.516C224.628 137.516 210.694 138.715 202.013 145.909C199.47 147.996 188.391 179.676 188.391 179.676L216.57 186.799L218.74 176.007" fill="#9AA846"/>
<path d="M224.628 137.516C224.628 137.516 210.694 138.715 202.013 145.909C199.47 147.996 188.391 179.676 188.391 179.676L216.57 186.799L218.74 176.007" stroke="#263238" stroke-width="1.1991" stroke-linecap="round" stroke-linejoin="round"/>
<path d="M241.439 95.8342C241.439 95.8342 237.566 90.0306 236.019 95.8342C234.472 101.638 236.019 104.06 238.333 105.607C240.648 107.154 241.439 107.058 241.439 107.058C241.439 107.058 241.823 114.792 244.533 119.828C247.243 124.864 253.442 130.62 259.246 131.04C265.049 131.459 268.922 127.179 270.853 124.469C272.783 121.759 278.983 106.662 278.983 99.2876C278.983 91.9131 278.203 78.3873 274.33 74.1065C270.457 69.8257 257.699 65.9886 248.406 69.8497C239.113 73.7108 240.276 91.9611 241.439 95.8342Z" fill="white" stroke="#263238" stroke-width="1.1991" stroke-linecap="round" stroke-linejoin="round"/>
<path d="M259.425 101.578C259.425 102.993 258.778 104.144 257.975 104.144C257.171 104.144 256.536 102.945 256.536 101.578C256.536 100.211 257.183 99.0117 257.975 99.0117C258.766 99.0117 259.425 100.163 259.425 101.578Z" fill="#263238"/>
<path d="M274.81 101.578C274.81 102.993 274.162 104.144 273.371 104.144C272.58 104.144 271.92 102.945 271.92 101.578C271.92 100.211 272.568 99.0117 273.371 99.0117C274.174 99.0117 274.81 100.163 274.81 101.578Z" fill="#263238"/>
<path d="M267.591 83.6261C270.955 83.5612 274.294 83.045 277.52 82.0913C276.813 78.6739 275.793 75.7481 274.33 74.1413C270.469 69.8845 257.699 66.0234 248.406 69.8845C239.113 73.7456 240.276 91.9479 241.439 95.821C241.821 95.9269 242.223 95.9388 242.611 95.8556C242.999 95.7725 243.36 95.5968 243.666 95.3435C243.971 95.0903 244.21 94.7669 244.363 94.4012C244.516 94.0354 244.578 93.638 244.545 93.2429V92.9072C244.545 92.9072 249.077 89.8974 249.077 86.6958C249.077 83.4942 249.077 80.4126 249.077 80.4126C249.077 80.4126 261.824 83.6261 267.591 83.6261Z" fill="#263238"/>
<path d="M240.204 94.3711L241.403 95.834C241.054 95.3073 240.652 94.8172 240.204 94.3711Z" fill="#263238"/>
<path d="M266.8 98.1113C266.8 98.1113 268.299 107.344 267.999 109.347C267.699 111.349 265.253 112.345 262.759 112.345C260.99 112.205 259.311 111.508 257.963 110.354" stroke="#263238" stroke-width="1.1991" stroke-linecap="round" stroke-linejoin="round"/>
<path d="M257.075 116.35C258.545 117.36 260.286 117.901 262.069 117.901C263.853 117.901 265.594 117.36 267.064 116.35" stroke="#263238" stroke-width="1.1991" stroke-linecap="round" stroke-linejoin="round"/>
<path d="M260.864 95.81C259.423 95.0131 257.819 94.5537 256.174 94.4665C254.529 94.3792 252.885 94.6664 251.368 95.3064" stroke="#263238" stroke-width="2.3982" stroke-linecap="round" stroke-linejoin="round"/>
<path d="M268.755 96.1937C268.755 96.1937 272.748 93.6996 276.249 96.4456" stroke="#263238" stroke-width="2.3982" stroke-linecap="round" stroke-linejoin="round"/>
<path d="M182.048 254.484H178.091V335.544H182.048V254.484Z" fill="#263238" stroke="#263238" stroke-width="1.1991" stroke-linecap="round" stroke-linejoin="round"/>
<path d="M223.56 254.484H219.603V335.544H223.56V254.484Z" fill="#263238" stroke="#263238" stroke-width="1.1991" stroke-linecap="round" stroke-linejoin="round"/>
<path d="M265.073 254.484H261.116V335.544H265.073V254.484Z" fill="#263238" stroke="#263238" stroke-width="1.1991" stroke-linecap="round" stroke-linejoin="round"/>
<path d="M306.598 254.484H302.641V335.544H306.598V254.484Z" fill="#263238" stroke="#263238" stroke-width="1.1991" stroke-linecap="round" stroke-linejoin="round"/>
<path d="M348.111 254.484H344.154V335.544H348.111V254.484Z" fill="#263238" stroke="#263238" stroke-width="1.1991" stroke-linecap="round" stroke-linejoin="round"/>
<path d="M376.77 246.582H165.236V254.484H376.77V246.582Z" fill="#263238" stroke="#263238" stroke-width="1.1991" stroke-linecap="round" stroke-linejoin="round"/>
<path d="M531.897 255.313C482.369 241.288 429.925 241.255 380.379 255.217C378.301 255.818 376.475 257.079 375.177 258.81C373.879 260.54 373.18 262.646 373.184 264.81V345.425H391.962V340.545C391.962 338.169 392.906 335.891 394.586 334.211C396.265 332.531 398.544 331.587 400.919 331.587H504.594C506.968 331.591 509.245 332.535 510.924 334.214C512.603 335.894 513.548 338.17 513.551 340.545V345.425H539.188V264.893C539.182 262.72 538.466 260.609 537.151 258.879C535.835 257.15 533.99 255.898 531.897 255.313ZM385.919 284.367V271.177C385.958 269.414 386.581 267.714 387.69 266.343C388.799 264.971 390.331 264.006 392.046 263.598C396.842 262.327 401.759 261.2 406.651 260.241C400.008 273.167 392.142 280.386 385.919 284.367ZM482.854 268.323C458.141 262.399 421.568 268.323 421.568 268.323V257.711C441.882 254.904 462.464 254.594 482.854 256.788V268.323ZM526.345 286.034C511.776 278.12 504.318 268.047 500.541 259.318C507.148 260.517 513.731 261.932 520.23 263.658C521.943 264.064 523.473 265.028 524.58 266.397C525.687 267.766 526.308 269.464 526.345 271.225V286.034Z" fill="white" stroke="#263238" stroke-width="1.1991" stroke-linecap="round" stroke-linejoin="round"/>
<path d="M524.954 255.313C475.426 241.288 422.982 241.255 373.436 255.217C371.347 255.807 369.508 257.064 368.198 258.795C366.889 260.527 366.181 262.639 366.181 264.81V345.425H384.971V340.545C384.971 338.171 385.913 335.895 387.591 334.215C389.268 332.536 391.543 331.591 393.917 331.587H497.591C499.966 331.587 502.245 332.531 503.925 334.211C505.604 335.891 506.548 338.169 506.548 340.545V345.425H532.185V264.893C532.185 262.728 531.479 260.621 530.174 258.892C528.869 257.163 527.037 255.907 524.954 255.313ZM378.976 284.367V271.177C379.015 269.414 379.638 267.714 380.747 266.343C381.856 264.971 383.388 264.006 385.103 263.598C389.9 262.327 394.804 261.2 399.708 260.241C393.065 273.167 385.199 280.386 378.976 284.367ZM475.911 268.323C451.198 262.399 414.625 268.323 414.625 268.323V257.711C434.94 254.904 455.521 254.594 475.911 256.788V268.323ZM519.403 286.034C504.833 278.12 497.375 268.047 493.586 259.318C500.193 260.517 506.776 261.932 513.275 263.658C514.99 264.064 516.521 265.027 517.63 266.396C518.739 267.765 519.362 269.463 519.403 271.225V286.034Z" fill="white" stroke="#263238" stroke-width="1.1991" stroke-linecap="round" stroke-linejoin="round"/>
<path d="M502.603 291.057H386.95V320.71H502.603V291.057Z" fill="#9AA846" stroke="#263238" stroke-width="1.1991" stroke-linecap="round" stroke-linejoin="round"/>
<path d="M514.282 193.283H380.799L308.936 321.923L450.742 317.654L514.282 193.283Z" fill="#9AA846" stroke="#263238" stroke-width="1.1991" stroke-linecap="round" stroke-linejoin="round"/>
<path d="M452.697 317.652H198.032V334.452H452.697V317.652Z" fill="#9AA846" stroke="#263238" stroke-width="1.1991" stroke-linecap="round" stroke-linejoin="round"/>
<path d="M514.282 210.095L450.742 334.453V317.654L514.282 193.283V210.095Z" fill="#9AA846" stroke="#263238" stroke-width="1.1991" stroke-linecap="round" stroke-linejoin="round"/>
<path d="M406.939 179.216C406.939 179.216 457.445 174.588 470.875 177.406L475.971 178.017C475.971 178.017 481.235 176.686 483.346 178.389C485.456 180.092 483.346 181.866 483.118 183.437C482.928 184.65 482.668 185.852 482.338 187.035C482.338 187.035 483.334 203.546 479.94 214.734C476.547 225.921 466.21 241.702 466.21 241.702C466.21 241.702 467.41 245.814 466.438 247.469C465.467 249.124 463.225 246.27 463.225 246.27C463.225 246.27 439.674 246.462 418.858 246.762C398.042 247.062 387.681 244.687 387.681 244.687C387.681 244.687 382.501 246.786 381.278 246.138C380.055 245.491 383.197 242.457 383.197 242.457C383.197 242.457 384.492 236.461 387.43 224.231C390.367 212 400.5 187.61 400.5 187.61C400.5 187.61 399.049 177.718 402.994 178.461L406.939 179.216Z" fill="white" stroke="#263238" stroke-width="1.1991" stroke-linecap="round" stroke-linejoin="round"/>
<path d="M376.158 257.397C385.427 258.105 394.96 258.74 402.322 259.016C412.035 259.376 426.748 262.433 439.794 265.623C441.365 260.731 442.576 256.918 442.576 256.918L451.905 254.124C451.905 254.124 464.04 252.925 464.04 251.318C464.04 249.711 464.975 222.695 463.417 219.278C461.858 215.86 450.97 212.743 430.13 213.678C424.842 213.918 415.201 212.119 415.201 212.119C415.201 212.119 402.011 214.301 397.31 214.301C392.61 214.301 387.969 213.678 384.24 217.719C384.072 217.899 383.892 218.127 383.7 218.366L359.526 247.349L371.973 249.747L376.158 257.397Z" fill="#263238" stroke="#263238" stroke-width="1.1991" stroke-linecap="round" stroke-linejoin="round"/>
<path d="M418.019 164.084C416.748 166.051 414.805 171.027 413.678 173.077C411.555 176.975 412.851 178.042 411.148 181.831C411.148 181.831 404.085 185.116 404.9 186.507C405.716 187.898 407.239 191.4 407.239 191.4C407.239 191.4 405.224 205.285 406.112 206.173C406.999 207.06 414.05 207.372 414.05 207.372L412.239 213.799C412.239 213.799 404.721 219.051 404.972 227.073C405.224 235.095 420.009 230.083 425.525 226.833C431.041 223.584 435.298 214.842 435.298 214.842C434.782 213.519 434.629 212.083 434.854 210.681C435.346 208.979 439.219 203.211 439.219 203.211C439.219 203.211 450.478 193.69 452.409 187.383C454.339 181.075 450.454 172.922 442.948 166.998C435.442 161.074 420.896 161.71 418.019 164.084Z" fill="white" stroke="#263238" stroke-width="1.1991" stroke-linecap="round" stroke-linejoin="round"/>
<path d="M420.825 157.405C417.863 158.041 415.609 159.324 415.824 161.746C415.952 162.982 416.46 164.147 417.278 165.082C418.097 166.016 419.185 166.673 420.393 166.962C420.393 166.962 435.31 170.631 435.022 172.622C434.734 174.612 428.247 177.418 429.026 179.097C429.702 180.183 430.765 180.972 432 181.303C432 181.303 429.518 186.256 431.64 187.299C433.763 188.342 434.039 186.879 435.61 186.1C437.18 185.32 441.773 187.299 441.029 192.455C440.286 197.611 433.607 198.223 433.607 198.223L437.816 204.146C437.816 204.146 445.766 198.211 450.802 194.889C455.838 191.568 460.395 182.598 457.217 173.305C454.04 164.012 437.612 158.317 432.684 157.345C428.754 156.717 424.748 156.737 420.825 157.405Z" fill="#263238" stroke="#263238" stroke-width="1.1991" stroke-linecap="round" stroke-linejoin="round"/>
<path d="M408.294 194.339C408.294 194.339 411.088 196.018 415.417 194.111" stroke="#263238" stroke-width="1.1991" stroke-linecap="round" stroke-linejoin="round"/>
<path d="M417.599 182.669C417.287 183.593 416.676 184.204 416.208 184.06C415.74 183.916 415.632 183.029 415.932 182.118C416.232 181.206 416.855 180.571 417.323 180.727C417.791 180.883 417.887 181.746 417.599 182.669Z" fill="#263238"/>
<path d="M415.656 176.916C416.578 176.27 417.711 176 418.825 176.16C419.939 176.321 420.95 176.9 421.652 177.779" stroke="#263238" stroke-width="1.1991" stroke-linecap="round" stroke-linejoin="round"/>
<path d="M406.112 206.172C409.425 206.236 412.739 206.123 416.04 205.836C418.438 205.416 425.633 204.193 425.633 204.193L413.222 209.481L414.038 207.323C414.038 207.323 407.67 207.671 406.112 206.172Z" fill="#263238" stroke="#263238" stroke-width="1.1991" stroke-linecap="round" stroke-linejoin="round"/>
<path d="M469.16 297.569L466.906 295.015C464.64 292.461 466.51 286.957 460.767 282.545C455.944 278.551 451.368 274.271 447.061 269.726C447.061 269.726 432.923 264.858 424.518 262.651C416.112 260.445 389.168 252.483 370.558 258.67C370.558 258.67 366.577 260.889 366.134 262.651C365.69 264.414 361.709 269.282 361.709 269.282C361.709 269.282 303.373 272.82 293.204 274.079C283.036 275.338 264.042 281.154 257.411 283.804C250.78 286.454 231.774 289.991 231.774 289.991C231.774 289.991 221.162 286.394 217.637 287.341C214.112 288.288 205.646 297.509 204.375 299.272C202.605 301.193 200.684 302.969 198.631 304.584V317.774H224.196C223.722 321.882 223.493 326.014 223.512 330.149C223.512 330.149 469.112 332.367 469.556 330.149C470 327.93 469.16 297.569 469.16 297.569Z" fill="white" stroke="#263238" stroke-width="1.1991" stroke-linecap="round" stroke-linejoin="round"/>
<path d="M425.333 317.113C427.212 317.313 429.036 317.871 430.705 318.756C433.799 320.962 433.799 326.718 433.799 326.718" stroke="#263238" stroke-width="1.1991" stroke-linecap="round" stroke-linejoin="round"/>
<path d="M414.793 316.131C414.793 316.131 416.328 316.131 418.45 316.347" stroke="#263238" stroke-width="1.1991" stroke-linecap="round" stroke-linejoin="round"/>
<path d="M364.851 316.131C364.851 316.131 377.669 316.575 380.763 318.781C383.856 320.987 383.856 326.743 383.856 326.743" stroke="#263238" stroke-width="1.1991" stroke-linecap="round" stroke-linejoin="round"/>
<path d="M278.671 316.131C278.671 316.131 291.49 316.575 294.583 318.781C297.677 320.987 297.677 326.743 297.677 326.743" stroke="#263238" stroke-width="1.1991" stroke-linecap="round" stroke-linejoin="round"/>
<path d="M360.438 316.131C360.438 316.131 370.031 316.575 372.273 318.781C374.515 320.987 374.575 326.743 374.575 326.743" stroke="#263238" stroke-width="1.1991" stroke-linecap="round" stroke-linejoin="round"/>
<path d="M437.708 258.154C437.708 258.154 406.052 253.262 404.853 253.262C403.653 253.262 394.48 255.144 390.751 257.087C387.022 259.029 387.621 260.372 389.852 261.559C391.798 262.438 393.856 263.044 395.967 263.358C397.894 263.717 399.84 263.966 401.795 264.102C401.795 264.102 404.769 263.958 406.867 263.658C408.209 263.429 409.502 262.975 410.692 262.315C410.692 262.315 434.195 273.011 437.18 273.91L437.708 258.154Z" fill="white" stroke="#263238" stroke-width="1.1991" stroke-linecap="round" stroke-linejoin="round"/>
<path d="M446.773 231.666L442.576 256.919L437.708 258.118L437.228 273.874C437.228 273.874 452.253 277.208 454.411 277.472C456.57 277.735 462.997 278.671 463.237 271.752C463.476 264.833 464.652 233.105 464.652 233.105" fill="#263238"/>
<path d="M446.773 231.666L442.576 256.919L437.708 258.118L437.228 273.874C437.228 273.874 452.253 277.208 454.411 277.472C456.57 277.735 462.997 278.671 463.237 271.752C463.476 264.833 464.652 233.105 464.652 233.105" stroke="#263238" stroke-width="1.1991" stroke-linecap="round" stroke-linejoin="round"/>
<path d="M402.61 253.346C402.61 253.346 406.615 254.077 407.826 253.598C409.037 253.118 410.009 253.717 409.889 254.929C409.769 256.14 407.215 256.739 407.215 256.739L402.61 253.346Z" fill="white" stroke="#263238" stroke-width="1.1991" stroke-linecap="round" stroke-linejoin="round"/>
<path d="M390.367 253.007C390.367 253.007 399.253 251.808 400.919 252.492C402.586 253.175 412.203 258.128 412.371 258.955C412.539 259.782 411.376 260.286 411.376 260.286C411.376 260.286 411.208 261.485 409.217 262.444L407.227 263.44C407.227 263.44 405.08 264.351 404.241 264.771C403.402 265.19 402.406 264.771 400.248 264.099C398.09 263.428 394.948 261.941 394.444 261.941C392.075 261.697 389.74 261.198 387.478 260.454C386.158 259.94 384.757 259.664 383.341 259.638C383.341 259.638 373.04 261.449 369.719 262.612C366.397 263.775 358.435 261.281 356.121 258.463C353.807 255.645 355.953 247.504 361.421 246.017C366.889 244.53 381.806 250.07 382.933 250.393C384.06 250.717 390.367 253.007 390.367 253.007Z" fill="white" stroke="#263238" stroke-width="1.1991" stroke-linecap="round" stroke-linejoin="round"/>
<path d="M400.667 255.406L411.375 260.287" stroke="#263238" stroke-width="1.1991" stroke-linecap="round" stroke-linejoin="round"/>
<path d="M398.725 257.709L409.217 262.445" stroke="#263238" stroke-width="1.1991" stroke-linecap="round" stroke-linejoin="round"/>
<path d="M397.154 259.893L405.884 263.898" stroke="#263238" stroke-width="1.1991" stroke-linecap="round" stroke-linejoin="round"/>
<path d="M433.727 288.945C435.624 290.369 437.423 291.92 439.111 293.586" stroke="#263238" stroke-width="1.1991" stroke-linecap="round" stroke-linejoin="round"/>
<path d="M368.388 269.724C368.388 269.724 390.487 265.743 410.356 275.024C416.4 277.827 422.227 281.073 427.791 284.737" stroke="#263238" stroke-width="1.1991" stroke-linecap="round" stroke-linejoin="round"/>
<path d="M386.075 274.137C386.075 274.137 416.568 282.099 434.674 296.728C452.781 311.357 452.349 315.734 451.03 315.734" stroke="#263238" stroke-width="1.1991" stroke-linecap="round" stroke-linejoin="round"/>
<path d="M122.908 338.506H113.591V432.467H122.908V338.506Z" fill="white" stroke="#263238" stroke-width="1.1991" stroke-linecap="round" stroke-linejoin="round"/>
<path d="M125.954 338.506H116.637V432.467H125.954V338.506Z" fill="white" stroke="#263238" stroke-width="1.1991" stroke-linecap="round" stroke-linejoin="round"/>
<path d="M252.591 399.072H116.697V409.169H252.591V399.072Z" fill="white" stroke="#263238" stroke-width="1.1991" stroke-linecap="round" stroke-linejoin="round"/>
<path d="M125.179 456.636C131.244 450.572 131.244 440.74 125.179 434.676C119.115 428.612 109.283 428.612 103.219 434.676C97.1548 440.74 97.1548 450.572 103.219 456.636C109.283 462.701 119.115 462.701 125.179 456.636Z" fill="#263238" stroke="#263238" stroke-width="1.1991" stroke-linecap="round" stroke-linejoin="round"/>
<path d="M126.181 438.728V425.609H110.917V435.646C108.869 436.849 107.234 438.645 106.229 440.798C105.224 442.95 104.897 445.357 105.29 447.699C105.683 450.042 106.778 452.21 108.431 453.916C110.083 455.623 112.215 456.787 114.543 457.255C116.872 457.724 119.288 457.474 121.472 456.539C123.655 455.604 125.503 454.028 126.772 452.019C128.04 450.011 128.668 447.664 128.573 445.291C128.479 442.917 127.665 440.629 126.241 438.728H126.181Z" fill="white" stroke="#263238" stroke-width="1.1991" stroke-linecap="round" stroke-linejoin="round"/>
<path d="M260.361 338.506H251.044V432.467H260.361V338.506Z" fill="white" stroke="#263238" stroke-width="1.1991" stroke-linecap="round" stroke-linejoin="round"/>
<path d="M263.406 338.506H254.089V432.467H263.406V338.506Z" fill="white" stroke="#263238" stroke-width="1.1991" stroke-linecap="round" stroke-linejoin="round"/>
<path d="M263.222 456.65C269.287 450.586 269.287 440.754 263.222 434.69C257.158 428.626 247.326 428.626 241.262 434.69C235.198 440.754 235.198 450.586 241.262 456.65C247.326 462.714 257.158 462.714 263.222 456.65Z" fill="#263238" stroke="#263238" stroke-width="1.1991" stroke-linecap="round" stroke-linejoin="round"/>
<path d="M264.234 438.728V425.609H248.898V435.646C246.851 436.85 245.218 438.647 244.215 440.8C243.212 442.952 242.886 445.358 243.28 447.7C243.674 450.042 244.77 452.209 246.422 453.914C248.075 455.619 250.206 456.783 252.534 457.251C254.862 457.719 257.278 457.469 259.461 456.534C261.643 455.599 263.491 454.024 264.759 452.016C266.028 450.008 266.656 447.663 266.562 445.29C266.469 442.917 265.657 440.629 264.234 438.728Z" fill="white" stroke="#263238" stroke-width="1.1991" stroke-linecap="round" stroke-linejoin="round"/>
<path d="M359.143 338.506H349.826V432.467H359.143V338.506Z" fill="white" stroke="#263238" stroke-width="1.1991" stroke-linecap="round" stroke-linejoin="round"/>
<path d="M362.188 338.506H352.871V432.467H362.188V338.506Z" fill="white" stroke="#263238" stroke-width="1.1991" stroke-linecap="round" stroke-linejoin="round"/>
<path d="M488.826 399.072H352.932V409.169H488.826V399.072Z" fill="white" stroke="#263238" stroke-width="1.1991" stroke-linecap="round" stroke-linejoin="round"/>
<path d="M354.035 460.753C362.379 458.771 367.537 450.401 365.555 442.057C363.574 433.713 355.203 428.555 346.859 430.537C338.515 432.519 333.358 440.889 335.339 449.233C337.321 457.577 345.691 462.735 354.035 460.753Z" fill="#263238" stroke="#263238" stroke-width="1.1991" stroke-linecap="round" stroke-linejoin="round"/>
<path d="M362.428 438.728V425.609H347.14V435.646C345.093 436.85 343.46 438.647 342.457 440.8C341.454 442.952 341.128 445.358 341.522 447.7C341.916 450.042 343.012 452.209 344.664 453.914C346.317 455.619 348.448 456.783 350.776 457.251C353.104 457.719 355.52 457.469 357.703 456.534C359.886 455.599 361.733 454.024 363.002 452.016C364.27 450.008 364.898 447.663 364.805 445.29C364.711 442.917 363.899 440.629 362.476 438.728H362.428Z" fill="white" stroke="#263238" stroke-width="1.1991" stroke-linecap="round" stroke-linejoin="round"/>
<path d="M496.596 338.506H487.279V432.467H496.596V338.506Z" fill="white" stroke="#263238" stroke-width="1.1991" stroke-linecap="round" stroke-linejoin="round"/>
<path d="M499.641 338.506H490.324V432.467H499.641V338.506Z" fill="white" stroke="#263238" stroke-width="1.1991" stroke-linecap="round" stroke-linejoin="round"/>
<path d="M499.462 456.64C505.527 450.576 505.527 440.744 499.462 434.68C493.398 428.616 483.566 428.616 477.502 434.68C471.438 440.744 471.438 450.576 477.502 456.64C483.566 462.705 493.398 462.705 499.462 456.64Z" fill="#263238" stroke="#263238" stroke-width="1.1991" stroke-linecap="round" stroke-linejoin="round"/>
<path d="M500.469 438.728V425.609H485.144V435.646C483.096 436.849 481.461 438.645 480.457 440.798C479.452 442.95 479.124 445.357 479.517 447.699C479.91 450.042 481.006 452.21 482.658 453.916C484.31 455.623 486.442 456.787 488.771 457.255C491.1 457.724 493.516 457.474 495.699 456.539C497.883 455.604 499.731 454.028 500.999 452.019C502.267 450.011 502.895 447.664 502.801 445.291C502.706 442.917 501.893 440.629 500.469 438.728Z" fill="white" stroke="#263238" stroke-width="1.1991" stroke-linecap="round" stroke-linejoin="round"/>
<path d="M529.175 328.625H198.032V345.424H529.175V328.625Z" fill="white" stroke="#263238" stroke-width="1.1991" stroke-linecap="round" stroke-linejoin="round"/>
<path d="M229.676 328.625H87.3306V345.424H229.676V328.625Z" fill="white" stroke="#263238" stroke-width="1.1991" stroke-linecap="round" stroke-linejoin="round"/>
<path d="M302.821 254.484H298.864V335.544H302.821V254.484Z" fill="white" stroke="#263238" stroke-width="1.1991" stroke-linecap="round" stroke-linejoin="round"/>
<path d="M344.334 254.484H340.377V335.544H344.334V254.484Z" fill="white" stroke="#263238" stroke-width="1.1991" stroke-linecap="round" stroke-linejoin="round"/>
<path d="M385.847 254.484H381.89V335.544H385.847V254.484Z" fill="white" stroke="#263238" stroke-width="1.1991" stroke-linecap="round" stroke-linejoin="round"/>
<path d="M427.372 254.484H423.415V335.544H427.372V254.484Z" fill="white" stroke="#263238" stroke-width="1.1991" stroke-linecap="round" stroke-linejoin="round"/>
<path d="M468.885 254.484H464.927V335.544H468.885V254.484Z" fill="white" stroke="#263238" stroke-width="1.1991" stroke-linecap="round" stroke-linejoin="round"/>
<path d="M497.543 246.582H286.01V254.484H497.543V246.582Z" fill="white" stroke="#263238" stroke-width="1.1991" stroke-linecap="round" stroke-linejoin="round"/>
<path d="M243.154 255.313C193.626 241.288 141.181 241.255 91.6354 255.217C89.5575 255.818 87.7316 257.079 86.4337 258.81C85.1358 260.54 84.4363 262.646 84.4408 264.81V345.425H103.171V340.545C103.171 338.171 104.113 335.895 105.79 334.215C107.467 332.536 109.743 331.591 112.116 331.587H215.79C218.165 331.591 220.441 332.535 222.121 334.214C223.8 335.894 224.744 338.17 224.748 340.545V345.425H250.384V264.893C250.382 262.728 249.675 260.622 248.371 258.894C247.067 257.166 245.235 255.909 243.154 255.313ZM97.1753 284.367V271.177C97.2149 269.414 97.8378 267.714 98.9465 266.343C100.055 264.971 101.587 264.006 103.303 263.598C108.099 262.327 113.015 261.2 117.908 260.241C111.265 273.167 103.399 280.386 97.1753 284.367ZM194.111 268.323C169.397 262.399 132.825 268.323 132.825 268.323V257.711C153.139 254.904 173.721 254.594 194.111 256.788V268.323ZM237.602 286.034C223.033 278.12 215.574 268.047 211.797 259.318C218.404 260.517 224.987 261.932 231.487 263.658C233.2 264.064 234.73 265.028 235.837 266.397C236.944 267.766 237.564 269.464 237.602 271.225V286.034Z" fill="white" stroke="#263238" stroke-width="1.1991" stroke-linecap="round" stroke-linejoin="round"/>
<path d="M236.211 255.313C186.683 241.288 134.238 241.255 84.6926 255.217C82.6146 255.818 80.7888 257.079 79.4908 258.81C78.1929 260.54 77.4934 262.646 77.4979 264.81V345.425H96.2279V340.545C96.2279 338.169 97.1716 335.891 98.8514 334.211C100.531 332.531 102.81 331.587 105.185 331.587H208.847C211.223 331.587 213.501 332.531 215.181 334.211C216.861 335.891 217.805 338.169 217.805 340.545V345.425H243.442V264.893C243.441 262.728 242.735 260.621 241.431 258.892C240.126 257.163 238.294 255.907 236.211 255.313ZM90.2324 284.367V271.177C90.2721 269.414 90.895 267.714 92.0037 266.343C93.1124 264.971 94.6443 264.006 96.3598 263.598C101.156 262.327 106.073 261.2 110.965 260.241C104.322 273.167 96.4557 280.386 90.2324 284.367ZM187.168 268.323C162.454 262.399 125.882 268.323 125.882 268.323V257.711C146.196 254.904 166.778 254.594 187.168 256.788V268.323ZM230.659 286.034C216.09 278.12 208.632 268.047 204.842 259.318C211.45 260.517 218.033 261.932 224.532 263.658C226.246 264.064 227.778 265.027 228.887 266.396C229.995 267.765 230.619 269.463 230.659 271.225V286.034Z" fill="white" stroke="#263238" stroke-width="1.1991" stroke-linecap="round" stroke-linejoin="round"/>
<path d="M213.86 291.057H98.2065V320.71H213.86V291.057Z" fill="#9AA846" stroke="#263238" stroke-width="1.1991" stroke-linecap="round" stroke-linejoin="round"/>
<path d="M539.14 325.699H524.99V345.424H539.14V325.699Z" fill="#9AA846" stroke="#263238" stroke-width="1.1991" stroke-linecap="round" stroke-linejoin="round"/>
<path d="M254.173 325.699H240.024V345.424H254.173V325.699Z" fill="#9AA846" stroke="#263238" stroke-width="1.1991" stroke-linecap="round" stroke-linejoin="round"/>
</g>
<defs>
<clipPath id="clip0_1836_32829">
<rect width="560" height="508.826" fill="white" transform="translate(0 0.351562)"/>
</clipPath>
</defs>
</svg>
